<svg width="32" height="32" viewBox="0 0 32 32" fill="none" xmlns="http://www.w3.org/2000/svg">
<path d="M30 20H16V22H30V20Z" fill="#E0E0E0"/>
<path d="M30 24H16V26H30V24Z" fill="#E0E0E0"/>
<path d="M23 28H16V30H23V28Z" fill="#E0E0E0"/>
<path d="M14 26H4V6H11.17L14.59 9.41L15.17 10H28V18H30V10C30 9.46957 29.7893 8.96086 29.4142 8.58579C29.0391 8.21071 28.5304 8 28 8H16L12.59 4.59C12.4039 4.40283 12.1827 4.25434 11.939 4.15308C11.6953 4.05182 11.4339 3.99979 11.17 4H4C3.46957 4 2.96086 4.21071 2.58579 4.58579C2.21071 4.96086 2 5.46957 2 6V26C2 26.5304 2.21071 27.0391 2.58579 27.4142C2.96086 27.7893 3.46957 28 4 28H14V26Z" fill="#E0E0E0"/>
</svg>
