<svg width="16" height="16" viewBox="0 0 16 16" fill="none" xmlns="http://www.w3.org/2000/svg">
<path d="M15.2259 2.58105H0.774292V16.0004H15.2259V2.58105Z" fill="#78B9EB"/>
<path d="M8.0001 1.54785H0.774292V5.16075H8.0001V1.54785Z" fill="#0052B4"/>
<path d="M15.2258 1.54785H8V5.16075H15.2258V1.54785Z" fill="#4A54D1"/>
<path d="M4.90324 9.80664H3.35486V11.355H4.90324V9.80664Z" fill="white"/>
<path d="M10.0646 9.80664H8.51624V11.355H10.0646V9.80664Z" fill="#4A54D1"/>
<path d="M7.48381 9.80664H5.93542V11.355H7.48381V9.80664Z" fill="white"/>
<path d="M12.6452 9.80664H11.0968V11.355H12.6452V9.80664Z" fill="white"/>
<path d="M12.6453 6.70996H11.0969V8.25835H12.6453V6.70996Z" fill="white"/>
<path d="M7.48406 6.70996H5.93567V8.25835H7.48406V6.70996Z" fill="white"/>
<path d="M10.0646 6.70996H8.51624V8.25835H10.0646V6.70996Z" fill="white"/>
<path d="M4.90324 6.70996H3.35486V8.25835H4.90324V6.70996Z" fill="#4A54D1"/>
<path d="M12.6453 12.9033H11.0969V14.4517H12.6453V12.9033Z" fill="white"/>
<path d="M7.48406 12.9033H5.93567V14.4517H7.48406V12.9033Z" fill="#4A54D1"/>
<path d="M10.0646 12.9033H8.51624V14.4517H10.0646V12.9033Z" fill="white"/>
<path d="M4.90324 12.9033H3.35486V14.4517H4.90324V12.9033Z" fill="white"/>
<path d="M12.6454 0H11.097V3.09677H12.6454V0Z" fill="#003778"/>
<path d="M4.90324 0H3.35486V3.09677H4.90324V0Z" fill="#003778"/>
<path d="M15.2259 2.58105H0.774292V16.0004H15.2259V2.58105Z" fill="#78B9EB"/>
<path d="M8.0001 1.54785H0.774292V5.16075H8.0001V1.54785Z" fill="#0052B4"/>
<path d="M15.2258 1.54785H8V5.16075H15.2258V1.54785Z" fill="#4A54D1"/>
<path d="M4.90324 9.80664H3.35486V11.355H4.90324V9.80664Z" fill="white"/>
<path d="M10.0646 9.80664H8.51624V11.355H10.0646V9.80664Z" fill="#FFDA44"/>
<path d="M7.48406 9.80664H5.93567V11.355H7.48406V9.80664Z" fill="white"/>
<path d="M12.6453 9.80664H11.0969V11.355H12.6453V9.80664Z" fill="white"/>
<path d="M12.6453 6.70996H11.0969V8.25835H12.6453V6.70996Z" fill="white"/>
<path d="M7.48406 6.70996H5.93567V8.25835H7.48406V6.70996Z" fill="white"/>
<path d="M10.0646 6.70996H8.51624V8.25835H10.0646V6.70996Z" fill="white"/>
<path d="M4.90324 6.70996H3.35486V8.25835H4.90324V6.70996Z" fill="#FFDA44"/>
<path d="M12.6453 12.9033H11.0969V14.4517H12.6453V12.9033Z" fill="white"/>
<path d="M7.48406 12.9033H5.93567V14.4517H7.48406V12.9033Z" fill="#FFDA44"/>
<path d="M10.0646 12.9033H8.51624V14.4517H10.0646V12.9033Z" fill="white"/>
<path d="M4.90324 12.9033H3.35486V14.4517H4.90324V12.9033Z" fill="white"/>
<path d="M12.6454 0H11.097V3.09677H12.6454V0Z" fill="#003778"/>
<path d="M4.90324 0H3.35486V3.09677H4.90324V0Z" fill="#003778"/>
</svg>
