<svg width="14" height="14" viewBox="0 0 14 14" fill="none" xmlns="http://www.w3.org/2000/svg">
<path d="M5.24998 2.33301H2.91665C2.59448 2.33301 2.33331 2.59418 2.33331 2.91634V6.99968C2.33331 7.32184 2.59448 7.58301 2.91665 7.58301H5.24998C5.57214 7.58301 5.83331 7.32184 5.83331 6.99968V2.91634C5.83331 2.59418 5.57214 2.33301 5.24998 2.33301Z" stroke="#212020" stroke-width="0.7" stroke-miterlimit="10"/>
<path d="M11.0833 9.33301H2.91665C2.59448 9.33301 2.33331 9.59417 2.33331 9.91634V11.083C2.33331 11.4052 2.59448 11.6663 2.91665 11.6663H11.0833C11.4055 11.6663 11.6666 11.4052 11.6666 11.083V9.91634C11.6666 9.59417 11.4055 9.33301 11.0833 9.33301Z" stroke="#212020" stroke-width="0.7" stroke-miterlimit="10"/>
<path d="M11.0833 2.33301H8.16665C7.84448 2.33301 7.58331 2.59418 7.58331 2.91634V6.99968C7.58331 7.32184 7.84448 7.58301 8.16665 7.58301H11.0833C11.4055 7.58301 11.6666 7.32184 11.6666 6.99968V2.91634C11.6666 2.59418 11.4055 2.33301 11.0833 2.33301Z" stroke="#212020" stroke-width="0.7" stroke-miterlimit="10"/>
</svg>
