<svg width="4" height="13" viewBox="0 0 4 13" fill="none" xmlns="http://www.w3.org/2000/svg">
<path d="M2.17871 0.0458978C2.56055 0.0458978 2.87044 0.173176 3.1084 0.427734C3.34635 0.687825 3.46533 1.01156 3.46533 1.39893C3.46533 1.79183 3.34635 2.11556 3.1084 2.37012C2.87044 2.63021 2.56055 2.76025 2.17871 2.76025C1.80241 2.76025 1.49528 2.63297 1.25732 2.37842C1.0249 2.12386 0.908691 1.79736 0.908691 1.39893C0.908691 1.00602 1.0249 0.682291 1.25732 0.427734C1.49528 0.173176 1.80241 0.0458978 2.17871 0.0458978ZM2.17871 4.99316C2.56055 4.99316 2.87044 5.12044 3.1084 5.375C3.34635 5.63509 3.46533 5.95882 3.46533 6.34619C3.46533 6.73909 3.34635 7.06282 3.1084 7.31738C2.87044 7.57747 2.56055 7.70752 2.17871 7.70752C1.80241 7.70752 1.49528 7.58024 1.25732 7.32568C1.0249 7.07113 0.908691 6.74463 0.908691 6.34619C0.908691 5.95329 1.0249 5.62956 1.25732 5.375C1.49528 5.12044 1.80241 4.99316 2.17871 4.99316ZM2.17871 9.94043C2.56055 9.94043 2.87044 10.0677 3.1084 10.3223C3.34635 10.5824 3.46533 10.9061 3.46533 11.2935C3.46533 11.6864 3.34635 12.0101 3.1084 12.2646C2.87044 12.5247 2.56055 12.6548 2.17871 12.6548C1.80241 12.6548 1.49528 12.5275 1.25732 12.2729C1.0249 12.0184 0.908691 11.6919 0.908691 11.2935C0.908691 10.9006 1.0249 10.5768 1.25732 10.3223C1.49528 10.0677 1.80241 9.94043 2.17871 9.94043Z" fill="#4A54D1"/>
</svg>
