<svg width="58" height="58" viewBox="0 0 58 58" fill="none" xmlns="http://www.w3.org/2000/svg">
<path d="M11.9616 35.1449V2.1264C11.9616 1.34544 12.5945 0.712463 13.3755 0.712463H44.8026C50.8214 0.712463 55.74 5.63109 55.74 11.6499V46.1714C55.74 46.953 55.1071 47.586 54.3261 47.586H24.4027C23.6998 53.1246 18.9682 57.2876 13.3755 57.2876C7.2368 57.2876 2.25995 52.3107 2.25995 46.1714C2.25995 40.5793 6.42365 35.8477 11.9616 35.1449V35.1449ZM7.91157 48.4512C6.59628 47.1359 8.59661 45.1363 9.9119 46.4515L11.8362 48.3758L16.6575 40.9691C17.6659 39.4161 20.0307 40.952 19.0223 42.505L13.3104 51.2784C12.8644 52.1038 11.7396 52.2792 11.0662 51.6058L7.91157 48.4512V48.4512ZM24.4027 44.7574H52.9115V11.6499C52.9115 7.19299 49.2595 3.54101 44.8026 3.54101H14.7901V35.1449C19.7978 35.7806 23.7669 39.7491 24.4027 44.7574V44.7574ZM13.3755 37.8844C8.7987 37.8844 5.0885 41.5946 5.0885 46.1714C5.0885 50.7488 8.7987 54.459 13.3755 54.459C17.953 54.459 21.6632 50.7488 21.6632 46.1714C21.6632 41.5946 17.953 37.8844 13.3755 37.8844V37.8844ZM42.7187 20.4726H49.028C49.8089 20.4726 50.4419 21.1063 50.4419 21.8872V36.7671C50.4419 37.548 49.8089 38.1817 49.028 38.1817H42.7187C41.9378 38.1817 41.3041 37.548 41.3041 36.7671V21.8872C41.3041 21.1063 41.9378 20.4726 42.7187 20.4726ZM47.6133 23.3011H44.1326V35.3524H47.6133V23.3011V23.3011ZM35.934 12.1116C34.0734 12.1116 34.0734 9.28306 35.934 9.28306H46.6474C48.508 9.28306 48.508 12.1116 46.6474 12.1116H35.934ZM35.934 16.8734C34.0734 16.8734 34.0734 14.0448 35.934 14.0448H46.6474C48.508 14.0448 48.508 16.8734 46.6474 16.8734H35.934ZM18.4352 31.8724C16.5746 31.8724 16.5746 29.0439 18.4352 29.0439H37.9576C39.8175 29.0439 39.8175 31.8724 37.9576 31.8724H18.4352V31.8724ZM18.4352 27.8252C16.5746 27.8252 16.5746 24.9966 18.4352 24.9966H37.9576C39.8175 24.9966 39.8175 27.8252 37.9576 27.8252H18.4352V27.8252ZM18.4352 23.7779C16.5746 23.7779 16.5746 20.9487 18.4352 20.9487H32.4814C34.342 20.9487 34.342 23.7779 32.4814 23.7779H18.4352V23.7779ZM18.7325 6.42642H29.2082C29.9892 6.42642 30.6222 7.0594 30.6222 7.84036V18.3161C30.6222 19.097 29.9892 19.7307 29.2082 19.7307H18.7325C17.9516 19.7307 17.3186 19.097 17.3186 18.3161V7.84036C17.3186 7.0594 17.9516 6.42642 18.7325 6.42642V6.42642ZM27.7936 9.25497H20.1472V16.9021H27.7936V9.25497Z" fill="white" fill-opacity="0.19"/>
</svg>
