<svg xmlns="http://www.w3.org/2000/svg" xmlns:xlink="http://www.w3.org/1999/xlink" viewBox="0 0 750 500"><defs><style>.cls-1{fill:#3e2344;}.cls-2,.cls-37{fill:#ffb072;}.cls-3{fill:#fd6141;}.cls-4{fill:#207089;}.cls-5{isolation:isolate;}.cls-15,.cls-6{fill:#fff;}.cls-7{fill:#f29353;}.cls-25,.cls-77,.cls-8{fill:#9d68aa;}.cls-10,.cls-9{fill:#e4bce8;}.cls-10,.cls-11,.cls-22,.cls-42,.cls-65,.cls-72{opacity:0.5;}.cls-11,.cls-18,.cls-76{fill:#7c4284;}.cls-12{fill:#e2e2e2;}.cls-13{fill:#552f5e;}.cls-14,.cls-55,.cls-61{fill:#549e7b;}.cls-14,.cls-16,.cls-17,.cls-37,.cls-76,.cls-77{fill-rule:evenodd;}.cls-15{mix-blend-mode:overlay;}.cls-15,.cls-25,.cls-61{opacity:0.3;}.cls-16,.cls-24{fill:#71bf9d;}.cls-17,.cls-63{fill:#84d1aa;}.cls-19{fill:#dd4026;}.cls-20,.cls-22{fill:#ffbe57;}.cls-21,.cls-48,.cls-54{fill:none;stroke-miterlimit:10;}.cls-21{stroke:#fff;stroke-width:1.22px;}.cls-22,.cls-40{mix-blend-mode:multiply;}.cls-23{fill:#ff8976;}.cls-26{fill:#ffdcae;}.cls-27{fill:#cc584e;}.cls-28{fill:#e57873;}.cls-29{fill:#3e2b13;}.cls-30{fill:#e06258;}.cls-31{clip-path:url(#clip-path);}.cls-32{fill:#f7b614;}.cls-33{clip-path:url(#clip-path-2);}.cls-34{fill:#ba2f1c;}.cls-35,.cls-65{fill:#a1abad;}.cls-36{fill:#ef7265;}.cls-38,.cls-42{fill:#e57e55;}.cls-39{fill:#ffa399;}.cls-41{fill:#d8462a;}.cls-43{clip-path:url(#clip-path-3);}.cls-44{fill:#1c3742;}.cls-45{fill:#efefef;}.cls-46{fill:#19323a;}.cls-47{clip-path:url(#clip-path-4);}.cls-48{stroke:#7c4284;stroke-width:0.76px;}.cls-49{fill:#bc6658;}.cls-50{fill:#1e1c1c;}.cls-51{fill:#c67154;}.cls-52{clip-path:url(#clip-path-5);}.cls-53{clip-path:url(#clip-path-6);}.cls-54{stroke:#f7dfd8;stroke-width:0.35px;}.cls-56{fill:#8c8c8c;}.cls-57{fill:#f4b998;}.cls-58{clip-path:url(#clip-path-7);}.cls-59{clip-path:url(#clip-path-8);}.cls-60{fill:#3c8460;}.cls-62{fill:#764582;}.cls-64{fill:#e57930;}.cls-66{fill:#2b545e;}.cls-67{clip-path:url(#clip-path-9);}.cls-68,.cls-72{fill:#2e1933;}.cls-69{fill:#4c2b54;}.cls-70{clip-path:url(#clip-path-10);}.cls-71{fill:#efe9da;}.cls-73{fill:#aaa;}.cls-74{fill:#201d42;}.cls-75{fill:#666;}</style><clipPath id="clip-path"><path class="cls-1" d="M349.79,408.94a41.64,41.64,0,0,0-3,4c-.4.82-1.53,6.67-1.53,6.67a4.82,4.82,0,0,0,3.38,1.66l2-3.56s2.1,5.38,3.64,7c1.87,1.95,11.1,3.15,12.32,2.29,0,0,1.15-3.49-1.89-4.85-5.62-2.52-6.77-9.39-6.77-9.39A4.88,4.88,0,0,0,349.79,408.94Z"/></clipPath><clipPath id="clip-path-2"><path class="cls-1" d="M328.49,412.64a41.62,41.62,0,0,0-2.14,4.51c-.21.89-.08,6.84-.08,6.84a4.79,4.79,0,0,0,3.66.91l1.2-3.9s3.18,4.81,5,6.06c2.24,1.51,11.51.73,12.52-.37,0,0,.38-3.65-2.88-4.34-6-1.27-8.6-7.74-8.6-7.74A4.87,4.87,0,0,0,328.49,412.64Z"/></clipPath><clipPath id="clip-path-3"><path class="cls-2" d="M409.35,408.28l-.7,12.85a35.77,35.77,0,0,1,.44,3.62c0,.9-.49,3.57-.49,3.57-1.14.82-4.73,1.06-6.54.52l-.34-.3a17,17,0,0,1-2.91.78c-2.6.59-10.32.68-11.45-.26,0,0-.94-3.86,2.26-4.62,8-1.92,9.21-4.05,9.8-6.51.74-3.08,1.62-10.81,1.62-10.81Z"/></clipPath><clipPath id="clip-path-4"><path class="cls-2" d="M432.48,407.58l-.71,12.84a36.17,36.17,0,0,0-.83,3.56c-.09.9.1,3.6.1,3.6,1,.94,4.58,1.57,6.44,1.23l.37-.26a17,17,0,0,0,2.81,1.1c2.52.87,10.18,1.81,11.41,1,0,0,1.35-3.73-1.74-4.84-7.76-2.79-8.71-5-9-7.54-.4-3.15-.43-10.93-.43-10.93Z"/></clipPath><clipPath id="clip-path-5"><path class="cls-3" d="M448.66,209.08S442.82,209,440,212c-4.44,4.74-6.68,6.05-13.77,7.15,0,0,9.16-17.31,8.84-18.4s-1-3.13,1.24-3.35S448.79,203.4,448.66,209.08Z"/></clipPath><clipPath id="clip-path-6"><path class="cls-3" d="M409.89,209.88s4.66-.38,7.41,3c2.59,3.19,4.18,6,9.58,6.23,0,0-3.78-16.89-3.54-18s.19-3.09-2.1-3.13S408.72,205.22,409.89,209.88Z"/></clipPath><clipPath id="clip-path-7"><path class="cls-4" d="M496.76,405.56l-.9,12.91s.41,2.74.39,3.66a36.15,36.15,0,0,1-.55,3.58c-1.16.81-4.77,1-6.58.43l-.35-.31a16.16,16.16,0,0,1-2.93.74c-2.63.55-10.4.54-11.53-.43,0,0-.88-3.9,2.35-4.62,8.1-1.81,9.33-3.94,10-6.4.79-3.09,1.79-10.86,1.79-10.86Z"/></clipPath><clipPath id="clip-path-8"><path class="cls-4" d="M528.4,405.86V418.8a36,36,0,0,0-.64,3.62c0,.91.29,3.61.29,3.61,1.11.89,4.7,1.32,6.54.88l.37-.28a17,17,0,0,0,2.88.94c2.58.74,10.33,1.25,11.52.36,0,0,1.15-3.82-2-4.76-8-2.37-9-4.57-9.49-7.07-.58-3.14-1-11-1-11Z"/></clipPath><clipPath id="clip-path-9"><path class="cls-4" d="M173.14,408.07v13.05s.6,2.73.65,3.65-.3,3.64-.3,3.64c-1.11.9-4.74,1.33-6.6.89l-.37-.28a17.27,17.27,0,0,1-2.9,1c-2.6.74-10.42,1.26-11.62.36,0,0-1.16-3.85,2-4.81,8-2.38,9.11-4.61,9.57-7.12.58-3.17,1.05-11.06,1.05-11.06Z"/></clipPath><clipPath id="clip-path-10"><path class="cls-4" d="M205.05,407.76l.9,13s-.41,2.76-.39,3.68a36.44,36.44,0,0,0,.55,3.62c1.17.81,4.82,1,6.64.43l.35-.31a17,17,0,0,0,3,.75c2.65.55,10.48.53,11.62-.44,0,0,.89-3.93-2.37-4.66-8.16-1.83-9.4-4-10-6.45-.79-3.12-1.8-11-1.8-11Z"/></clipPath></defs><g class="cls-5"><g id="BACKGROUND"><rect class="cls-6" width="750" height="500"/></g><g id="OBJECTS"><rect class="cls-7" x="494.91" y="213.31" width="147.53" height="6.55"/><rect class="cls-8" x="614.59" y="165.19" width="20.3" height="47.97"/><rect class="cls-9" x="614.59" y="202.92" width="20.3" height="2.52"/><rect class="cls-9" x="614.59" y="167.36" width="20.3" height="2.52"/><rect class="cls-10" x="614.59" y="165.19" width="1.94" height="47.97"/><rect class="cls-11" x="632.95" y="165.19" width="1.94" height="47.97"/><path class="cls-12" d="M629.41,176.91a4.67,4.67,0,1,1-4.67-4.68A4.67,4.67,0,0,1,629.41,176.91Z"/><circle class="cls-13" cx="624.74" cy="176.91" r="3.3"/><rect class="cls-8" x="594.29" y="165.19" width="20.3" height="47.97"/><rect class="cls-9" x="594.29" y="202.92" width="20.3" height="2.52"/><rect class="cls-9" x="594.29" y="167.36" width="20.3" height="2.52"/><rect class="cls-10" x="594.29" y="165.19" width="1.94" height="47.97"/><rect class="cls-11" x="612.65" y="165.19" width="1.94" height="47.97"/><path class="cls-12" d="M609.11,176.91a4.67,4.67,0,1,1-4.67-4.68A4.67,4.67,0,0,1,609.11,176.91Z"/><circle class="cls-13" cx="604.44" cy="176.91" r="3.3"/><rect class="cls-8" x="574" y="165.19" width="20.3" height="47.97"/><rect class="cls-9" x="574" y="202.92" width="20.3" height="2.52"/><rect class="cls-9" x="574" y="167.36" width="20.3" height="2.52"/><rect class="cls-10" x="574" y="165.19" width="1.94" height="47.97"/><rect class="cls-11" x="592.35" y="165.19" width="1.94" height="47.97"/><path class="cls-12" d="M588.82,176.91a4.68,4.68,0,1,1-4.68-4.68A4.68,4.68,0,0,1,588.82,176.91Z"/><circle class="cls-13" cx="584.14" cy="176.91" r="3.3"/><rect class="cls-8" x="553.7" y="165.19" width="20.3" height="47.97"/><rect class="cls-9" x="553.7" y="202.92" width="20.3" height="2.52"/><rect class="cls-9" x="553.7" y="167.36" width="20.3" height="2.52"/><rect class="cls-10" x="553.7" y="165.19" width="1.94" height="47.97"/><rect class="cls-11" x="572.06" y="165.19" width="1.94" height="47.97"/><path class="cls-12" d="M568.52,176.91a4.68,4.68,0,1,1-4.67-4.68A4.67,4.67,0,0,1,568.52,176.91Z"/><circle class="cls-13" cx="563.85" cy="176.91" r="3.3"/><path class="cls-14" d="M138.31,351.31s-37.67-34.42-50.64-69.07C87.67,282.24,123.52,285.26,138.31,351.31Z"/><path class="cls-15" d="M124.65,328.45c-.67-1.25-1.4-2.46-2.14-3.67s-1.45-2.44-2.21-3.64c-1.52-2.39-3.06-4.77-4.67-7.11-3.21-4.67-6.57-9.25-10.12-13.66s-7.27-8.71-11.23-12.76c1.75,2.23,3.51,4.44,5.2,6.7s3.41,4.51,5.1,6.77c3.35,4.55,6.64,9.14,9.81,13.8s6.27,9.38,9.25,14.17l2.21,3.61,2.15,3.65c1.5,2.4,2.75,4.93,4.2,7.37A147.63,147.63,0,0,0,124.65,328.45Z"/><path class="cls-16" d="M138.7,348.79S123.53,308.47,127,277.43C127,277.43,152.85,293.42,138.7,348.79Z"/><path class="cls-15" d="M137.17,326.36c0-1.19-.11-2.39-.2-3.58s-.16-2.39-.27-3.58c-.24-2.39-.48-4.77-.8-7.14-.63-4.75-1.41-9.48-2.39-14.16s-2.14-9.33-3.57-13.9c.46,2.35.94,4.69,1.35,7s.84,4.7,1.25,7c.78,4.71,1.5,9.42,2.1,14.14s1.13,9.46,1.54,14.21l.29,3.56.21,3.57c.21,2.38.19,4.76.35,7.15A124.88,124.88,0,0,0,137.17,326.36Z"/><path class="cls-17" d="M133.16,356.42S101.86,340,91.72,329.36l-8.83,29.9s-3-28.08,6.76-44.53c0,0,29.22,5.93,47.77,37.26Z"/><path class="cls-15" d="M121.78,341.24l-2.09-1.88c-2.82-2.47-5.74-4.82-8.78-7s-6.14-4.31-9.32-6.3-6.43-3.84-9.79-5.57l-.59-.3-.33.55a38.94,38.94,0,0,0-3,6.14,48.36,48.36,0,0,0-2,6.52,58.46,58.46,0,0,0-1.09,6.68,54.29,54.29,0,0,0-.3,6.74,71.36,71.36,0,0,1,2.34-13.18A54.27,54.27,0,0,1,89,327.33a38.62,38.62,0,0,1,2.73-5.27c3.07,1.64,6.09,3.43,9.08,5.25,3.16,1.95,6.27,4,9.34,6.1s6,4.33,9,6.62,5.76,4.72,8.55,7.21c-1.27-1.36-2.52-2.77-3.89-4.05Z"/><path class="cls-14" d="M619.91,376.64s37.66-34.42,50.63-69.07C670.54,307.57,634.69,310.59,619.91,376.64Z"/><path class="cls-15" d="M633.57,353.78c.67-1.24,1.4-2.46,2.14-3.67s1.44-2.44,2.21-3.64c1.52-2.39,3.06-4.77,4.66-7.11,3.22-4.67,6.57-9.24,10.13-13.66s7.27-8.7,11.23-12.76c-1.75,2.23-3.51,4.44-5.21,6.71s-3.4,4.5-5.09,6.77c-3.35,4.54-6.64,9.13-9.81,13.79s-6.27,9.38-9.25,14.17L632.36,358l-2.14,3.65c-1.5,2.4-2.75,4.93-4.21,7.37A149.76,149.76,0,0,1,633.57,353.78Z"/><path class="cls-16" d="M619.51,374.13s15.18-40.32,11.69-71.37C631.2,302.76,605.37,318.76,619.51,374.13Z"/><path class="cls-15" d="M621.05,351.7c0-1.2.11-2.4.2-3.59s.16-2.39.27-3.58c.23-2.38.48-4.77.79-7.14.64-4.75,1.41-9.47,2.4-14.16s2.14-9.33,3.57-13.89c-.46,2.34-.94,4.68-1.35,7s-.84,4.7-1.25,7.05c-.78,4.7-1.5,9.41-2.11,14.13S622.45,347,622,351.76l-.29,3.56-.21,3.57c-.22,2.38-.19,4.77-.35,7.16A124.9,124.9,0,0,1,621.05,351.7Z"/><path class="cls-17" d="M625.06,381.75s31.3-16.44,41.43-27.06l8.84,29.9s3-28.07-6.76-44.53c0,0-29.22,5.93-47.77,37.26Z"/><path class="cls-15" d="M636.43,366.57l2.1-1.88c2.81-2.47,5.74-4.82,8.78-7s6.13-4.31,9.32-6.29,6.43-3.84,9.79-5.57l.58-.31.34.55a38.94,38.94,0,0,1,3,6.14,48.8,48.8,0,0,1,2,6.52,58.43,58.43,0,0,1,1.08,6.68,50.83,50.83,0,0,1,.3,6.75A71.32,71.32,0,0,0,671.38,359a50.75,50.75,0,0,0-2.17-6.29,36.5,36.5,0,0,0-2.73-5.27c-3.06,1.64-6.09,3.43-9.07,5.25-3.17,1.95-6.27,4-9.34,6.11s-6.05,4.32-9,6.61-5.76,4.72-8.56,7.21c1.28-1.36,2.53-2.76,3.89-4Z"/><circle class="cls-9" cx="495.91" cy="150.4" r="31.03" transform="translate(38.9 394.71) rotate(-45)"/><circle class="cls-18" cx="495.91" cy="150.4" r="25.79" transform="translate(38.9 394.71) rotate(-45)"/><circle class="cls-6" cx="495.91" cy="150.4" r="24.67"/><rect class="cls-8" x="502.28" y="137.1" width="2.86" height="18.03" transform="translate(400.4 -368.09) rotate(62.46)"/><rect class="cls-8" x="500.54" y="148.77" width="1.36" height="23.42" transform="translate(-17.62 248.67) rotate(-27.4)"/><path class="cls-13" d="M497.88,150.4a2,2,0,1,1-2-2A2,2,0,0,1,497.88,150.4Z"/><rect class="cls-19" x="494.92" y="126.87" width="1.97" height="4.13"/><rect class="cls-19" x="494.92" y="170.17" width="1.97" height="4.13"/><rect class="cls-19" x="516.57" y="148.52" width="1.97" height="4.13" transform="translate(668.14 -366.98) rotate(90)"/><rect class="cls-19" x="473.27" y="148.52" width="1.97" height="4.13" transform="translate(624.84 -323.67) rotate(90)"/><rect class="cls-19" x="510.23" y="133.21" width="1.97" height="4.13" transform="translate(245.39 -321.86) rotate(45)"/><rect class="cls-19" x="479.61" y="163.83" width="1.97" height="4.13" transform="translate(258.07 -291.25) rotate(45)"/><rect class="cls-19" x="510.23" y="163.83" width="1.97" height="4.13" transform="translate(990.01 -78.29) rotate(135)"/><rect class="cls-19" x="479.61" y="133.21" width="1.97" height="4.13" transform="translate(916.09 -108.91) rotate(135)"/><path class="cls-20" d="M651,406.91H74.21l0,.14a7.54,7.54,0,0,1-.45,1.34c-.3.6-.65.74-.84.32a1.38,1.38,0,0,1-.08-.53,6,6,0,0,1,.17-1.27H71a117.53,117.53,0,0,1,4.78-16.44c21-57.08,94.26-56.94,110-96.64s34.46-69.7,64.94-69,77.3,72.75,118.16,66,70.12-57.55,131.78-49c26.43,3.66,63.1,71.72,96.21,78.7C622.92,326.06,655.14,370.54,651,406.91Z"/><path class="cls-21" d="M77,406.91a110.89,110.89,0,0,1,4.19-14.06c10.64-28.94,36-42.11,60.56-54.85,21.29-11.05,41.4-21.48,49.41-41.64,18.34-46.2,36.11-65.68,59.42-65.15h.27c11.4.47,27.16,13.86,43.86,28,20.67,17.57,44.11,37.47,67,38.4a40.89,40.89,0,0,0,8.09-.47c17.11-2.83,31.79-12.51,47.34-22.75,21.13-13.93,43-28.33,73.55-27.08,3,.13,6.16.41,9.27.84,10.72,1.49,25.77,18.13,40.34,34.24,18,19.86,36.55,40.4,55.5,44.4,20.12,4.24,47.53,38,49.65,69.84a51.57,51.57,0,0,1-.31,10.24"/><path class="cls-22" d="M570.46,406.91H151a83.33,83.33,0,0,1,3.61-12.62c15.17-41.27,68.15-41.17,79.55-69.88s24.91-50.39,47-49.89,55.9,52.61,85.43,47.74,50.7-41.61,95.28-35.43c19.12,2.65,45.64,51.86,69.57,56.91C550.4,347.75,574,380.48,570.46,406.91Z"/><path class="cls-6" d="M74.39,405.65a9.1,9.1,0,0,1-.18,1.26l0,.14a7.54,7.54,0,0,1-.45,1.34c-.3.6-.65.74-.84.32a1.38,1.38,0,0,1-.08-.53,6,6,0,0,1,.17-1.27.77.77,0,0,1,0-.15,6,6,0,0,1,.47-1.35c.31-.59.7-.72.86-.29A2,2,0,0,1,74.39,405.65Z"/><path class="cls-6" d="M74.14,402.93a7.49,7.49,0,0,1,.28-1.41A6,6,0,0,1,75,400.2c.35-.57.74-.67.87-.23a1.45,1.45,0,0,1,0,.52,8,8,0,0,1-.29,1.39,7.14,7.14,0,0,1-.53,1.32c-.33.57-.7.7-.86.26A1.45,1.45,0,0,1,74.14,402.93Z"/><path class="cls-6" d="M75.78,397.77a55.13,55.13,0,0,1,1.94-5.45,54.21,54.21,0,0,1,2.48-5.22c.32-.58.74-.88.93-.67s.12.61-.07,1.08c-.74,1.77-1.48,3.52-2.21,5.28s-1.43,3.53-2.17,5.3c-.26.59-.62.94-.84.77S75.64,398.26,75.78,397.77Z"/><path class="cls-6" d="M82.42,382.73a2.86,2.86,0,0,1,.29-.82,2.94,2.94,0,0,1,.54-.69c.54-.44.91-.24.83.43v0a2.79,2.79,0,0,1-.29.81,2.45,2.45,0,0,1-.53.68c-.52.46-.9.28-.84-.41Z"/><path class="cls-6" d="M85.29,377.7a2.5,2.5,0,0,1,.35-.8,2.54,2.54,0,0,1,.58-.65c.58-.41.93-.17.8.49v0a2.51,2.51,0,0,1-.35.78,2.69,2.69,0,0,1-.57.65c-.55.41-.92.21-.81-.46Z"/><rect class="cls-9" x="239.51" y="139.1" width="203.26" height="132.65"/><rect class="cls-6" x="244.28" y="157.5" width="193.74" height="108.39"/><rect class="cls-18" x="239.51" y="139.1" width="203.26" height="13.48"/><path class="cls-12" d="M438,245.7H407.94V224.48H438v-1.13H407.94V202.13H438V201H407.94V179.78H438v-1.13H407.94V157.5H406.8v21.15h-32V157.5h-1.13v21.15h-32V157.5h-1.13v21.15h-32V157.5h-1.13v21.15h-32V157.5h-1.13v21.15h-30v1.13h30V201h-30v1.13h30v21.22h-30v1.13h30V245.7h-30v1.13h30v18.85h1.13V246.83h32v18.85h1.13V246.83h32v18.85h1.13V246.83h32v18.85h1.13V246.83h32v18.85h1.14V246.83H438Zm-97.45-22.35h-32V202.13h32Zm1.13-21.22h32v21.22h-32Zm33.12,21.22V202.13h32v21.22Zm0-22.35V179.78h32V201Zm-1.13,0h-32V179.78h32Zm-33.12,0h-32V179.78h32Zm-33.12,0h-32V179.78h32Zm0,1.13v21.22h-32V202.13Zm0,22.35V245.7h-32V224.48Zm1.13,0h32V245.7h-32Zm33.12,0h32V245.7h-32Zm33.12,0h32V245.7h-32Z"/><rect class="cls-20" x="310.33" y="180.83" width="10.52" height="15.94" transform="translate(-26.15 52.94) rotate(-9.21)"/><rect class="cls-23" x="292.65" y="203.73" width="10.52" height="15.94" transform="translate(32.69 -39.74) rotate(8.07)"/><rect class="cls-24" x="295.15" y="204.42" width="10.52" height="15.94" transform="translate(15.58 -20.48) rotate(4.01)"/><path class="cls-25" d="M293.21,410.13l-13.53,13.34s-3.81,4.43,6.56,4.43H617.46s6.21-.34,2.07-6.51-14.7-11.26-14.7-11.26Z"/><path class="cls-26" d="M290.69,315.87s-8.65,78.79-11,107.6c-.32,3.87,6.37,4.89,7,1.07,4.05-24.66,17.06-108.67,17.06-108.67Z"/><path class="cls-7" d="M302.86,315.87s-7.59,69-9.65,94.26c-.28,3.39,5.57,4.28,6.12.94,3.56-21.6,15-95.2,15-95.2Z"/><path class="cls-7" d="M595.18,315.87s7.58,69,9.65,94.26c.28,3.39-5.58,4.28-6.13.94-3.55-21.6-15-95.2-15-95.2Z"/><path class="cls-26" d="M608.5,315.87s8.66,78.79,11,107.6c.31,3.87-6.37,4.89-7,1.07-4-24.66-17.06-108.67-17.06-108.67Z"/><path class="cls-27" d="M283,307H617.46a0,0,0,0,1,0,0V310a10.26,10.26,0,0,1-10.26,10.26H293.3A10.26,10.26,0,0,1,283,310V307A0,0,0,0,1,283,307Z"/><rect class="cls-7" x="265.69" y="305.65" width="369.12" height="5.55"/><polygon class="cls-26" points="283.38 295.63 265.69 305.64 634.81 305.64 618.5 295.63 283.38 295.63"/><path class="cls-27" d="M613.77,285l-.29,4.41-.13,2.1-.44,6.56c-.21,2.92-22.92,3.22-23.16.28l-.54-6.54-.19-2.12-.38-4.69Z"/><ellipse class="cls-28" cx="601.21" cy="284.97" rx="12.56" ry="1.54"/><path class="cls-29" d="M610.86,285c0,.53-4.32,1-9.65,1s-9.65-.43-9.65-1,4.32-1,9.65-1S610.86,284.44,610.86,285Z"/><path class="cls-9" d="M613.48,289.38l-.13,2.1a39.65,39.65,0,0,1-12.48,1.69,39.26,39.26,0,0,1-11.66-1.39l-.19-2.12c1.53.59,5.08,1.59,11.85,1.59S611.65,290.08,613.48,289.38Z"/><path class="cls-24" d="M598.08,285.87s-8.88-20.24,3.12-20.24,3.16,20.24,3.16,20.24S600.35,286,598.08,285.87Z"/><path class="cls-19" d="M320.45,167.73c2.91-8.87,8.15-8.5,8.15-8.5s2.45-7.71,16.44-3c6.53,1.67,14.95,11.38,9.38,28.23-1.83,5.53,6.74,10,5.2,23.68-1.36,12.12-43.07,11.33-45.15.23-2.4-12.76,8.74-14.48,7.86-21.07C321.43,180.55,318.68,173.12,320.45,167.73Z"/><path class="cls-30" d="M356.32,202.73c16,11.27,27,38.1,23.55,42.44s-10.12.26-13.89-3.89c-5.35-5.87-17.67-23.23-19.09-26.52C343.43,206.76,353.58,200.8,356.32,202.73Z"/><path class="cls-1" d="M349.79,408.94a41.64,41.64,0,0,0-3,4c-.4.82-1.53,6.67-1.53,6.67a4.82,4.82,0,0,0,3.38,1.66l2-3.56s2.1,5.38,3.64,7c1.87,1.95,11.1,3.15,12.32,2.29,0,0,1.15-3.49-1.89-4.85-5.62-2.52-6.77-9.39-6.77-9.39A4.88,4.88,0,0,0,349.79,408.94Z"/><g class="cls-31"><path class="cls-18" d="M367.53,426.3c-.17-.06-11.56.11-13.37-3-1.42-2.42-2.75-6.66-3.43-7.08s-4-3.33-4-3.33l-3.31,8.45L362.37,433Z"/></g><path class="cls-32" d="M361.06,419.68l-1.47.55a5.2,5.2,0,0,1-1.41-2.68l1.41-.74a.53.53,0,0,1,.71.21l1,1.91A.52.52,0,0,1,361.06,419.68Z"/><path class="cls-1" d="M375.75,342.11c.06-11.26-8.19-55.56-15.68-81.21-3.42-11.75-15.05-6.66-20.24,2.53-11.66,20.63,17.59,75.43,16.34,82.13a399.61,399.61,0,0,0-6.38,63.38c.13,2.72,8.23,7.91,8.31,2.86C358.1,411.8,375.69,351.3,375.75,342.11Z"/><path class="cls-1" d="M328.49,412.64a41.62,41.62,0,0,0-2.14,4.51c-.21.89-.08,6.84-.08,6.84a4.79,4.79,0,0,0,3.66.91l1.2-3.9s3.18,4.81,5,6.06c2.24,1.51,11.51.73,12.52-.37,0,0,.38-3.65-2.88-4.34-6-1.27-8.6-7.74-8.6-7.74A4.87,4.87,0,0,0,328.49,412.64Z"/><g class="cls-33"><path class="cls-18" d="M349.5,425.85c-.18,0-11.27,2.55-13.7-.09-1.9-2.07-4.11-5.93-4.85-6.2s-4.6-2.41-4.6-2.41l-1.44,9,21,7.36Z"/></g><path class="cls-32" d="M341.78,420.74l-1.33.86a5.28,5.28,0,0,1-1.94-2.32l1.22-1a.54.54,0,0,1,.74.06l1.42,1.64A.53.53,0,0,1,341.78,420.74Z"/><path class="cls-1" d="M341.27,299.21,340.61,270c-4.19-9.58-18.53-12.52-22.62-1.24-7.63,21.06,6.69,97.89,10.5,144.75.69,3.31,8.67,4,8.4,0C336.89,413.56,340.67,312.44,341.27,299.21Z"/><path class="cls-19" d="M320.53,261.67S315.09,267,313.38,279s-2.2,40.83-2.2,40.83,33,12.18,62.76-1.2c0,0-7.69-51.27-15.58-58.18S328.18,252,320.53,261.67Z"/><path class="cls-34" d="M362.22,269.62c-.5,2.31-9.4,7.64-22.2,7.22s-22.86-4.22-22.32-7.56c1.29-7.89,9.52-37.75,22.32-37.34S363.62,263.23,362.22,269.62Z"/><path class="cls-23" d="M313.33,208.15c3.93-8.29,23.4-14.07,24.4-14.61,0,0,18.82,6.85,21.22,11.82.47,1-2.14,4.33-2.55,8.36-.17,1.71,2,7.56,1.7,9.59-.91,6.66-3.42,16.73-2.58,19,1.17,3.22,6.1,19.67,7.52,24.43a1.61,1.61,0,0,1-.81,1.92c-19.68,9.3-35.75,5-45.49-.45a1.61,1.61,0,0,1-1-1.76c1.21-4.63,6.58-18.28,8.09-22.46C325.84,238.41,310.29,214.56,313.33,208.15Z"/><path class="cls-30" d="M324,242.59s3.88,14.9,10.23,15.23,22.89-11.53,22.89-11.53Z"/><path class="cls-18" d="M340.58,216.87a.35.35,0,0,1-.25-.1c-8.54-8.41-13.26-14.93-14.05-18.92,0-.19.7-.4.74-.21.74,3.77,5.44,10.38,13.69,18.53L343,216c4.36-9,4.55-16.55,2.21-19.55-.12-.15.77-.1.89.06,2.53,3.25,2,10.64-2.56,20a.34.34,0,0,1-.29.19l-2.69.19Z"/><rect class="cls-6" x="332.67" y="218" width="19.79" height="12.64" rx="0.77" transform="translate(-14.97 24.72) rotate(-4.05)"/><rect class="cls-19" x="333.92" y="221.51" width="5.84" height="7.42" rx="0.62" transform="translate(-15.05 24.32) rotate(-4.04)"/><rect class="cls-1" x="339.64" y="218.51" width="5.08" height="0.78" transform="matrix(1, -0.07, 0.07, 1, -14.59, 24.69)"/><rect class="cls-18" x="340.63" y="215.58" width="2.69" height="3.33" rx="0.32" transform="translate(-14.47 24.67) rotate(-4.05)"/><rect class="cls-35" x="341.66" y="220.84" width="9.03" height="0.85" transform="translate(-14.75 24.97) rotate(-4.04)"/><rect class="cls-35" x="341.78" y="222.62" width="9.03" height="0.85" transform="translate(-14.87 24.99) rotate(-4.05)"/><rect class="cls-35" x="341.91" y="224.4" width="9.03" height="0.85" transform="translate(-15 25) rotate(-4.04)"/><rect class="cls-35" x="342.12" y="227.39" width="9.03" height="0.85" transform="translate(-15.21 25.02) rotate(-4.05)"/><path class="cls-36" d="M335,227.58c11.74-.21,33,1.54,41.86,6.18,2.09,1.1,5.7,4.91,4.32,10s-8.79,3.55-8.79,3.55-28.05-5.31-35.21-7.77C329.23,236.79,329.13,227.69,335,227.58Z"/><path class="cls-37" d="M347.57,180c-1.3-1-1.64-4.17-.65-5.77a1.85,1.85,0,0,1,2.41-.71c1.25.5,1.62,2.08,1.47,3.64C350.62,179,349,181.07,347.57,180Z"/><path class="cls-38" d="M348,179.25l.31-1.71-1-.3s.14-3.14,1.89-2.24C350.61,175.74,349.72,179.64,348,179.25Z"/><path class="cls-2" d="M372.87,238.23a12.16,12.16,0,0,0,5.07-2.26c1.34-1.1,2.93,2.79,2.93,2.79a5.77,5.77,0,0,0-.41-5.4c-.35-.5.11-1.4-.46-2.4s-.81-.48-1.26-1.22-.24-1.08-.53-1.84-.87-.58-1.36-1.05-.67-1.29-1.26-1.55a3.59,3.59,0,0,0-2.91.4,13.15,13.15,0,0,0-5.44,5.1C366.3,232.75,364.93,239.17,372.87,238.23Z"/><path class="cls-39" d="M312.24,215.7c-1.06-11.64,8.34-17.79,14.47-9.06,4.56,6.48,9.16,29.4,12.06,30.64,2.38,1,28.37-6.92,28.37-6.92,4.11.09,6.12,7.28,4.72,9.81-17.42,7.66-32.4,16.58-39.28,13.33C324.1,249.48,313.29,227.2,312.24,215.7Z"/><path class="cls-2" d="M332.81,181.22a40.26,40.26,0,0,1-1.31,9.55c-1.27,4.23-2.32,5.07-4.16,7-1.69,1.74,12.78,8.94,12.78,8.94s1.55,4.05,2.31,4.22l.42-4.52s5.3-5.21,3.14-8c-3.21-4.11-4.49-3.07-3.85-8.89.55-5.08.9-7.9.9-7.9Z"/><path class="cls-37" d="M331.75,181.46s3,10.43,12.92,8.16c5-1.15,5.95-11.18,3.61-14.14a17.29,17.29,0,0,0-1.44-9.45c-1.83-4-10.3-5.09-16.83-2,0,0-1.69,2.18.34,10.44a2.58,2.58,0,0,0-3.32.06c-1.38,1.05-1.25,3-.45,4.78C327.52,181.46,330.11,183,331.75,181.46Z"/><path class="cls-38" d="M330.92,180.76l-1.05-1.88,1.19-.73s-1.39-3.59-3.26-1.9C326.27,177.63,328.9,181.84,330.92,180.76Z"/><path class="cls-3" d="M345.29,182.72s-.93-1.55-6.1-.21C340.21,185.2,345.33,185.82,345.29,182.72Z"/><g class="cls-40"><path class="cls-38" d="M345.29,182.72a17.86,17.86,0,0,1-6.1-.21"/><path class="cls-38" d="M345.29,182.72a11,11,0,0,1-3.07.33,9.48,9.48,0,0,1-3-.54c.51,0,1,.11,1.52.14s1,.07,1.52.06C343.25,182.76,344.26,182.72,345.29,182.72Z"/></g><path class="cls-1" d="M347.22,175.5c0,.48-.58.61-1.35.66s-1.39,0-1.42-.47.56-.91,1.33-1S347.19,175,347.22,175.5Z"/><path class="cls-41" d="M348.49,173.3a16.34,16.34,0,0,0-2.46-1.15c-.55,0-2.14,1-2.35.81a3.56,3.56,0,0,1-.47-.73,14.38,14.38,0,0,1,3-.77A5.59,5.59,0,0,1,348.49,173.3Z"/><path class="cls-1" d="M340.21,176c0,.47-.59.6-1.35.65s-1.39,0-1.43-.47.57-.9,1.33-.95S340.17,175.5,340.21,176Z"/><path class="cls-41" d="M335.26,173.65c0,.07,2.21-1.27,2.83-1.21s2.67.73,2.9.5a3.22,3.22,0,0,0,.43-.78,21.48,21.48,0,0,0-3.61-.39A5.47,5.47,0,0,0,335.26,173.65Z"/><path class="cls-42" d="M343.94,180.13s-1.75.21-1.78-.28,3.54-1.57,3.79-1.25S344.7,179.79,343.94,180.13Z"/><path class="cls-38" d="M343.14,172.82a8.93,8.93,0,0,0,.2,3c.39.75,2.26,2.28,2.35,2.65s-1.62,1.57-1.75,1.65,2.59-.77,2.37-1.62-2.6-2.7-2.74-3.11S343.14,172.82,343.14,172.82Z"/><path class="cls-41" d="M347.08,162.83c.79.68,5.06,2.91-.05,3.65-3.89.56-11.86-1.43-14.21-2.09a13.7,13.7,0,0,1,.59,5.64c-.44,2-1.28,6.68-1.28,6.68a22.48,22.48,0,0,0-1.78-2.2c-.74-.74-3.3-1.28-4.32,1.78,0,0-2.43-4.39-2.49-7.36C323.36,160.42,337.13,154.32,347.08,162.83Z"/><path class="cls-2" d="M323.28,233c.82-1.72,2.44-3.41,5.76-4.81a4.68,4.68,0,0,1,2.76-.47,7.7,7.7,0,0,1,.8,0s7.18-.1,8.11,2.83a14.33,14.33,0,0,1-.06,6.73s-3.56.52-4.82,0a10.71,10.71,0,0,0-3.49,3.07c-.44.62-1.7.39-1.55-.35a7.82,7.82,0,0,1,2.47-4.12,13.16,13.16,0,0,0-4.81,2.57c-.64.56-2,.08-1.67-.66.71-1.54,2.16-3.1,5.12-4.53v0a14.45,14.45,0,0,0-5.36,2.67c-.64.53-2,.09-1.66-.62a8.3,8.3,0,0,1,3.19-3.33,11.24,11.24,0,0,0-3.15,1.89C324.24,234.43,322.9,233.81,323.28,233Z"/><path class="cls-2" d="M397.63,310.83a22.53,22.53,0,0,0-.26-5.59c-1.27-4.35-6.54-6.07-8.79-4.57-1.43,1-4.78,9.65-3.47,14.56a.76.76,0,0,0,.49.57,8.32,8.32,0,0,0,.11,1.78c.18.65.8.77,1.14.42a8.78,8.78,0,0,0,.23,1.17c.24.82,1.1.89,1.26.14.35-1.63.39-2.73.72-3.87a15.47,15.47,0,0,1,1-2.42c-.21.69-.4,1.44-.56,2.18a10.12,10.12,0,0,0,.07,4.42c.28.81,1.25.79,1.38,0a34.87,34.87,0,0,1,.7-3.94c.32-1.07,1.27-4.27,2.46-5.5a6,6,0,0,1,.33.83,21.13,21.13,0,0,1,.09,3.07c.06,1.21,1.42,2.59,2,.89A33.9,33.9,0,0,0,397.63,310.83Z"/><path class="cls-34" d="M398,260c2.29-11.29-2.06-32.79,2.49-42,4.9-9.91,20.86-3.72,20.45,4.27a293.88,293.88,0,0,1-5.53,41.46c-2.9,13.26-17.25,42.79-17.25,42.79a36.34,36.34,0,0,1-10.45-5.43S395.71,271.57,398,260Z"/><path class="cls-2" d="M409.35,408.28l-.7,12.85a35.77,35.77,0,0,1,.44,3.62c0,.9-.49,3.57-.49,3.57-1.14.82-4.73,1.06-6.54.52l-.34-.3a17,17,0,0,1-2.91.78c-2.6.59-10.32.68-11.45-.26,0,0-.94-3.86,2.26-4.62,8-1.92,9.21-4.05,9.8-6.51.74-3.08,1.62-10.81,1.62-10.81Z"/><g class="cls-43"><path class="cls-44" d="M397.35,421a4.61,4.61,0,0,1,3.33,1c1.12,1.13,2,2.09,3.71,1.77,4.39-.83,4.19-4.24,6.05-2.69l-.05,8.89-24.27.93,0-6.74Z"/><path class="cls-45" d="M386.8,428.1s.31,1.16,7.94.83,8.31-2.05,14.27-1.88l-.32,2.09L386.36,431Z"/></g><path class="cls-46" d="M406,282.65c2.56-12.7,28.6-12.76,26.08,0-8.7,43.92-12.12,99.24-21.53,127.73-4.21,1.53-8.31-.19-10.46-1.51C400.1,408.85,397.64,324.1,406,282.65Z"/><path class="cls-4" d="M411.41,411.05c-4.38,1.53-10-.16-12.27-1.53a.19.19,0,0,1-.1-.17c0-.28,0-1.21.1-3.84a.2.2,0,0,1,.27-.18c4,1.7,8.63,2.82,12.74,1.32a.19.19,0,0,1,.25.23c-.46,2.2-.77,3.64-.86,4A.2.2,0,0,1,411.41,411.05Z"/><path class="cls-2" d="M432.48,407.58l-.71,12.84a36.17,36.17,0,0,0-.83,3.56c-.09.9.1,3.6.1,3.6,1,.94,4.58,1.57,6.44,1.23l.37-.26a17,17,0,0,0,2.81,1.1c2.52.87,10.18,1.81,11.41,1,0,0,1.35-3.73-1.74-4.84-7.76-2.79-8.71-5-9-7.54-.4-3.15-.43-10.93-.43-10.93Z"/><g class="cls-47"><path class="cls-44" d="M443,421.49a4.6,4.6,0,0,0-3.41.61c-1.23,1-2.21,1.85-3.88,1.35-4.28-1.31-3.7-4.67-5.72-3.33l-.92,8.84,24,3.58.77-6.69Z"/><path class="cls-45" d="M452.73,429.75s-.44,1.12-8,0-8-2.95-14-3.43l.08,2.1,22,4.31Z"/></g><path class="cls-44" d="M426.88,283.58c.48-13,23.38-18,24.73-5.07,5.88,55.84-6.81,97-8.82,131.89-5.49,2.15-9.18,1.41-12.08.13C430.71,410.53,426.16,303.16,426.88,283.58Z"/><path class="cls-4" d="M443.72,406.84c-.36,2.22-.53,3.21-.59,3.51a.18.18,0,0,1-.13.15c-5.66,2.19-9.51,1.46-12.54.15a.18.18,0,0,1-.12-.17c0-.36,0-1.5-.06-3.25a.2.2,0,0,1,.24-.2,23.17,23.17,0,0,0,13-.41A.2.2,0,0,1,443.72,406.84Z"/><path class="cls-44" d="M406.08,286.06c.27,6.77,10.9,11.85,23.75,11.35s22.5-6.38,22.23-13.15c-.85-21.85-11.73-47.39-24.58-46.89S405.21,263.79,406.08,286.06Z"/><path class="cls-19" d="M407.64,262c1.4-14.08-8.59-40.5-7.11-44,2.21-5.26,27.53-19.16,27.53-19.16,1.06.51,26.34,10.89,31.33,19,2.09,3.38-10.28,36.52-9.47,49,.41,6.16,2.66,12.2,2.89,18.13.27,6.77-48,7.39-48.23.61C404.27,277.74,406.88,269.75,407.64,262Z"/><path class="cls-34" d="M459.39,217.85a.83.83,0,0,0-.08-.12c-19.8,16.52-21.49,46-6.61,65.9-.47-5.48-2.4-11.07-2.78-16.76C449.11,254.37,461.48,221.23,459.39,217.85Z"/><polyline class="cls-48" points="417.79 212.23 424.17 228.85 427.08 228.85 437.13 211.77"/><rect class="cls-6" x="415.01" y="230.59" width="21.42" height="13.68" rx="0.77"/><rect class="cls-19" x="416.31" y="233.94" width="6.32" height="8.03" rx="0.62"/><rect class="cls-1" x="422.97" y="231.12" width="5.49" height="0.84"/><rect class="cls-18" x="424.17" y="227.94" width="2.91" height="3.6" rx="0.32"/><rect class="cls-35" x="424.96" y="233.94" width="9.78" height="0.92"/><rect class="cls-35" x="424.96" y="235.87" width="9.78" height="0.92"/><rect class="cls-35" x="424.96" y="237.8" width="9.78" height="0.92"/><rect class="cls-35" x="424.96" y="241.05" width="9.78" height="0.92"/><path class="cls-2" d="M414.47,179.34c.32,8.24,4.81,10.65,12.5,10.35,9.83-.39,13.75-4.79,13.43-13S433.65,163.7,426,164,414,167.64,414.47,179.34Z"/><path class="cls-2" d="M417.78,180.8c-.54-.9-2.34-3.08-4.08-1.76s-.79,5.21.95,6.73S421.26,186.66,417.78,180.8Z"/><path class="cls-38" d="M415.81,183.63c.28-.46,1,.5,1.37-.61.13-.38-.3-1.22-.62-1.69s-1.62-2.13-2.62-1.2-.33,3.71.86,4.59c.69.51,1.33.44,1.2.16C415.78,184.42,415.61,183.86,415.81,183.63Z"/><path class="cls-49" d="M415.1,182a2.52,2.52,0,0,0,.76,2.58c-.14-.38-.21-.75-.05-.92.28-.46,1,.5,1.37-.61.13-.38-.3-1.22-.62-1.69l0,0A1.31,1.31,0,0,0,415.1,182Z"/><path class="cls-19" d="M413.37,169.82s-1.14,6.94,1.73,12.15S419.89,167.15,413.37,169.82Z"/><path class="cls-2" d="M433.38,186.89s.38,12.76,2.38,15.2c7,8.57-.34,16-6.49,15.91-8.19-.17-11-6.27-6.34-13.55.91-1.43.13-16.15.13-16.15Z"/><path class="cls-2" d="M423.38,197.9c4.84-.18,9.86-6.69,10.32-11.9.29-3.14-2.11-5.12-1.19-9.37,1.87-8.62-6.59-9.4-10.32-9.25-5.09.21-8,4.36-7.79,9.58,0,0,.19,7.6.41,10.12C415.44,194.38,418.53,198.09,423.38,197.9Z"/><path class="cls-19" d="M418.76,164.44c-1.18.18-3.09,1.07-3.35.82-.54-.9,1.64-6.56,12.33-3.36,0,0-.95-1.2-.36-1.36,6.94-1.86,13.18,6,12.88,13.79,0-.83.22-2.32.66-2.41.78-.15,1.65,4.3,0,8.44-1.34,4.41-7.37,10.6-7.5,7.26-.33-2.38-.35-4.31-1.37-6.53a12.81,12.81,0,0,1-1.35-4.21,9.61,9.61,0,0,1,.16-2.62c-.08,0-6.27-1.07-10.42-3.48.27.22.53.43.8.61,1.79,1.26,5.84,2.72,5.7,3.38s-12.42.27-12.57-3.19c-.47,0-1.68,3.83-2,3.19C409.8,170.28,414.33,165.8,418.76,164.44Z"/><path class="cls-50" d="M426.22,179.35s0,0,0,0a0,0,0,0,0,0,0Z"/><path class="cls-6" d="M426.94,188.94c-.12-.41-7.74-.11-7.91.23s.66,1.83,2.79,1.83C424.29,191,427.05,189.34,426.94,188.94Z"/><path class="cls-51" d="M426.68,189c.09.18.09.11.06.12l-.1,0-.24,0-.53,0-1.07,0q-1.08,0-2.16,0c-.72,0-1.44,0-2.15.08-.36,0-.72.06-1.07.12l-.24.05,0,0s0,0,0,0v.07a1,1,0,0,0,.18.43,2.64,2.64,0,0,0,1.72,1,5.41,5.41,0,0,0,2.08-.11,9.82,9.82,0,0,0,2-.71,7.4,7.4,0,0,0,.92-.5,2.55,2.55,0,0,0,.41-.3,1.29,1.29,0,0,0,.17-.15C426.68,189,426.65,188.87,426.68,189Zm.52-.15a.56.56,0,0,1-.18.49,1.12,1.12,0,0,1-.23.21,3.63,3.63,0,0,1-.47.33,6.63,6.63,0,0,1-1,.51,9.28,9.28,0,0,1-2.12.65,6.13,6.13,0,0,1-2.22,0,3,3,0,0,1-1.88-1.18,1.41,1.41,0,0,1-.23-.56.36.36,0,0,1,0-.2s.07-.09.11-.11l.08,0,.28-.07c.37-.07.73-.1,1.09-.14.72-.08,1.44-.14,2.17-.18s1.44-.09,2.17-.1h1.1l.55,0,.29,0,.16,0C427,188.65,427.06,188.6,427.2,188.86Z"/><path class="cls-2" d="M432.8,180.21c.46-.94,2.08-3.25,3.92-2.08s1.21,5.14-.42,6.79S429.79,186.32,432.8,180.21Z"/><path class="cls-38" d="M435,182.87l-1.42-.49a7.53,7.53,0,0,1,.48-1.74c.33-.58,1.45-2.24,2.52-1.4s.62,3.67-.49,4.64a2.8,2.8,0,0,1-1.22.67Z"/><path class="cls-2" d="M458.74,308.75a22.49,22.49,0,0,1,2.26-5.12c2.76-3.59,8.29-3.3,9.85-1.08,1,1.4,1,10.72-2,14.83a.78.78,0,0,1-.66.35,8,8,0,0,1-.75,1.62.67.67,0,0,1-1.21,0,8.53,8.53,0,0,1-.64,1c-.51.67-1.34.43-1.22-.32.27-1.66.62-2.7.72-3.87a15.83,15.83,0,0,0,0-2.61c-.06.72-.15,1.49-.26,2.24a10,10,0,0,1-1.67,4.1c-.54.65-1.44.28-1.29-.47a34.31,34.31,0,0,0,.76-3.93c.09-1.11.36-4.44-.3-6a6.45,6.45,0,0,0-.61.65,21.59,21.59,0,0,0-1.19,2.84c-.5,1.1-2.26,1.9-2.17.11A34.24,34.24,0,0,1,458.74,308.75Z"/><path class="cls-19" d="M458,216c5.91,5.94,9.25,21.76,12.18,40,3.36,20.87,2,49.24,2,49.24-.1,1.3-12.58-.78-12.47-2.08,0,0-1.46-29-5.64-41.87-4.42-13.69-8.51-23.6-12.51-34.74C438.85,219,450.18,208.2,458,216Z"/><path class="cls-3" d="M448.66,209.08S442.82,209,440,212c-4.44,4.74-6.68,6.05-13.77,7.15,0,0,9.16-17.31,8.84-18.4s-1-3.13,1.24-3.35S448.79,203.4,448.66,209.08Z"/><g class="cls-52"><path class="cls-19" d="M426.25,219.15s13.26-12.6,13.58-15.35-1.07-6-5.07-5.19S423.2,213,426.25,219.15Z"/></g><path class="cls-3" d="M409.89,209.88s4.66-.38,7.41,3c2.59,3.19,4.18,6,9.58,6.23,0,0-3.78-16.89-3.54-18s.19-3.09-2.1-3.13S408.72,205.22,409.89,209.88Z"/><g class="cls-53"><path class="cls-19" d="M426.88,219.12s-8.1-11.75-8.63-14.47.6-6.09,4.65-5.57S429.44,212.77,426.88,219.12Z"/></g><path class="cls-54" d="M445.23,308"/><path class="cls-1" d="M424.29,182.76c0,.45.58.55,1.31.56s1.33,0,1.34-.5-.58-.84-1.31-.86S424.3,182.3,424.29,182.76Z"/><path class="cls-19" d="M428.93,178.93a27.14,27.14,0,0,0-2.79-.45c-.66.07-3.12.71-3.35.48a3.87,3.87,0,0,1-.49-1.11,26.41,26.41,0,0,1,4.09-.53,5.2,5.2,0,0,1,2.13.59A1.6,1.6,0,0,1,428.93,178.93Z"/><path class="cls-1" d="M417,182.55c0,.46.58.56,1.31.57s1.32-.05,1.33-.5-.57-.84-1.3-.86S417,182.1,417,182.55Z"/><path class="cls-19" d="M414.66,179.51c0,.08,1.52-.88,2.11-.83s3.25.92,3.48.67a5.35,5.35,0,0,0,.54-1.17,27.13,27.13,0,0,0-4.37-.51,3.75,3.75,0,0,0-1.54.66C414.54,178.7,414.67,179.21,414.66,179.51Z"/><path class="cls-42" d="M420.44,186.82s1.68.13,1.69-.33-3.43-1.34-3.66-1S419.71,186.53,420.44,186.82Z"/><path class="cls-38" d="M420.9,179.84a8.54,8.54,0,0,1-.07,2.87c-.33.73-2.05,2.27-2.12,2.62s1.61,1.43,1.73,1.49-2.48-.62-2.32-1.44,2.36-2.67,2.48-3.07S420.9,179.84,420.9,179.84Z"/><path class="cls-55" d="M489,213.33c-6.46,12.58-7.18,51.39-16.77,84.49a36.63,36.63,0,0,0,10.56,5.38s19.61-35.1,22.06-80.7C505.25,214.46,494.06,203.43,489,213.33Z"/><polygon class="cls-56" points="507.87 311.2 452.07 301.52 459.63 262.96 514.52 272.84 507.87 311.2"/><polygon class="cls-12" points="453.87 301.83 461.69 264.18 514.52 272.84 507.87 311.2 453.87 301.83"/><path class="cls-56" d="M488.41,287.34a4.22,4.22,0,1,1-4.22-4.22A4.22,4.22,0,0,1,488.41,287.34Z"/><path class="cls-57" d="M476.56,307c-.29,2.18-3.24,1.71-2.85-.54a20.62,20.62,0,0,1,1-4.08c.66-1.36,2.06-1.09,2.31.5A19.34,19.34,0,0,1,476.56,307Z"/><path class="cls-57" d="M479.18,307.67a1.46,1.46,0,1,1-2.85-.52,18.55,18.55,0,0,1,1-3.91c.66-1.31,2.06-1.05,2.31.47A17.83,17.83,0,0,1,479.18,307.67Z"/><path class="cls-57" d="M481.82,308.24c-.29,1.66-3.24,1.31-2.85-.41a12.9,12.9,0,0,1,1-3.12,1.23,1.23,0,0,1,2.31.38A11.49,11.49,0,0,1,481.82,308.24Z"/><path class="cls-57" d="M473.92,306.17c-.29,1.66-3.24,1.3-2.85-.41a12.35,12.35,0,0,1,1-3.12,1.22,1.22,0,0,1,2.31.38A11.88,11.88,0,0,1,473.92,306.17Z"/><path class="cls-4" d="M496.76,405.56l-.9,12.91s.41,2.74.39,3.66a36.15,36.15,0,0,1-.55,3.58c-1.16.81-4.77,1-6.58.43l-.35-.31a16.16,16.16,0,0,1-2.93.74c-2.63.55-10.4.54-11.53-.43,0,0-.88-3.9,2.35-4.62,8.1-1.81,9.33-3.94,10-6.4.79-3.09,1.79-10.86,1.79-10.86Z"/><g class="cls-58"><path class="cls-44" d="M484.5,418.13a4.61,4.61,0,0,1,3.32,1c1.11,1.16,2,2.13,3.71,1.83,4.43-.76,4.28-4.19,6.13-2.6l-.18,8.94-24.44.58.07-6.79Z"/><path class="cls-4" d="M473.77,425.17s.3,1.17,8,.95,8.39-1.94,14.38-1.68l-.34,2.09-22.51,1.56Z"/></g><path class="cls-46" d="M518,280.2c-3-12.73-20.93-14-22.69-1.11-2.53,18.54-9.78,138.34-9.78,138.34,3.48,2.82,8.49,1.36,11.64.35C497.12,417.78,525.76,313.49,518,280.2Z"/><path class="cls-4" d="M528.4,405.86V418.8a36,36,0,0,0-.64,3.62c0,.91.29,3.61.29,3.61,1.11.89,4.7,1.32,6.54.88l.37-.28a17,17,0,0,0,2.88.94c2.58.74,10.33,1.25,11.52.36,0,0,1.15-3.82-2-4.76-8-2.37-9-4.57-9.49-7.07-.58-3.14-1-11-1-11Z"/><g class="cls-59"><path class="cls-44" d="M539.77,419.25a4.63,4.63,0,0,0-3.39.79c-1.19,1.08-2.12,2-3.83,1.58-4.37-1.07-4-4.49-5.93-3l-.44,8.94,24.34,2.26.4-6.77Z"/><path class="cls-4" d="M550,427s-.38,1.15-8,.41-8.24-2.52-14.24-2.67l.21,2.11,22.34,3.1Z"/></g><path class="cls-44" d="M540.57,276c-6.1-11.55-24.31-7.94-24.75,5.12-1.41,41.39,12,137.18,12,137.18a11.18,11.18,0,0,0,11.06-.39S552,297.73,540.57,276Z"/><path class="cls-44" d="M498.09,285c.17,6.82,13,14.66,24.15,14.39s19.5-6,19.34-12.82c-.54-22-9.66-33.77-20.77-33.5S497.54,262.53,498.09,285Z"/><path class="cls-60" d="M494.92,281.88c.1,4,12,5.74,24.9,5.42s22.63-2.43,22.53-6.43c-.32-12.88-11.56-20.12-24.5-19.8S494.6,268.75,494.92,281.88Z"/><path class="cls-24" d="M550.68,211.77c-4.9-8.2-30.58-15.65-31.77-15.69-8.17-.23-26.59,11.34-28.46,15.55-1.63,3.65,5.51,34.29,4.81,48.19-.36,7.25-1.29,12.67-1.11,20,.16,6.82,48.71,6.92,48.54.1-.14-5.65-1.18-9.92-1.11-15.81C541.71,252.28,552.79,215.3,550.68,211.77Z"/><path class="cls-61" d="M542.69,279.89c-.14-5.65-1.18-9.92-1.11-15.81.13-11.8,11.21-48.78,9.1-52.31s-9.85-1.08-10.88,3c-8.77,20.45-8.7,38.64-1.55,68.18C541,282.21,542.72,281.17,542.69,279.89Z"/><path class="cls-6" d="M515.93,218.76a1.13,1.13,0,1,0,1.1-1.16A1.13,1.13,0,0,0,515.93,218.76Z"/><path class="cls-6" d="M514.41,230.85a1.14,1.14,0,1,0,1.11-1.16A1.14,1.14,0,0,0,514.41,230.85Z"/><path class="cls-6" d="M513.53,242.62a1.14,1.14,0,1,0,1.11-1.16A1.13,1.13,0,0,0,513.53,242.62Z"/><path class="cls-6" d="M512.66,253.49a1.14,1.14,0,1,0,1.11-1.16A1.14,1.14,0,0,0,512.66,253.49Z"/><path class="cls-6" d="M512.68,264.21a1.13,1.13,0,1,0,1.1-1.16A1.12,1.12,0,0,0,512.68,264.21Z"/><path class="cls-6" d="M512.37,274.93a1.14,1.14,0,1,0,1.11-1.16A1.14,1.14,0,0,0,512.37,274.93Z"/><rect class="cls-6" x="504.71" y="229.34" width="21.42" height="13.68" rx="0.77"/><rect class="cls-24" x="506.02" y="232.69" width="6.32" height="8.03" rx="0.62"/><rect class="cls-1" x="512.68" y="229.87" width="5.49" height="0.84"/><rect class="cls-18" x="513.88" y="226.69" width="2.91" height="3.6" rx="0.32"/><rect class="cls-35" x="514.67" y="232.69" width="9.78" height="0.92"/><rect class="cls-35" x="514.67" y="234.62" width="9.78" height="0.92"/><rect class="cls-35" x="514.67" y="236.55" width="9.78" height="0.92"/><rect class="cls-35" x="514.67" y="239.8" width="9.78" height="0.92"/><path class="cls-62" d="M516.65,227.53h-2.56a.69.69,0,0,1-.64-.42c-3.26-7.79-8-24.48-5.54-27.89.12-.17.6-.57.52-.38-1.46,3.34,2,19.18,5.72,28l2.5,0,.15-.22c4.18-4.8,14.11-17.45,14.71-26.84,0-.21.66.44.65.65-.62,9.62-10.56,21.83-14.79,26.69l-.2.24A.68.68,0,0,1,516.65,227.53Z"/><path class="cls-60" d="M528.5,193.31c-.92-2.1-17.33-1.42-18,.63l.79,8.74,17.27-1.06Z"/><path class="cls-2" d="M524.13,182A42.68,42.68,0,0,0,525.3,192a54.21,54.21,0,0,0,4.56,10.23l-7.76,1-5,7.87-1.86-8.87-6-1.87s5.49-3.79,5-9.94c-.47-5.36-.77-8.34-.77-8.34Z"/><path class="cls-63" d="M528.5,193.31s.51,1.7-2.69,4.84c-1,1-4.47,3.44-4.47,3.44l-4.73,10.18,1.19.13,4.5-9.49,5.32,7.15c2.55-3.21,4.21-6.22,4.33-8.91Z"/><polygon class="cls-60" points="527.62 209.56 522.3 202.41 517.8 211.9 523.46 206.82 527.62 209.56"/><path class="cls-63" d="M510.52,193.94c0,2.36,1.62,6.25,4.55,7.8l2.73,10.16-1.19-.13-2.27-9.16-3.18,7.17a19,19,0,0,1-3.53-9.05Z"/><polygon class="cls-60" points="511.16 209.78 514.34 202.61 516.61 211.77 514.47 206.84 511.16 209.78"/><path class="cls-37" d="M508.22,181.13c1.6-1.36,1.8-5.47.41-7.44a2.38,2.38,0,0,0-3.14-.74c-1.57.75-1.93,2.8-1.62,4.78C504.24,180.12,506.47,182.62,508.22,181.13Z"/><path class="cls-38" d="M507.61,180.21l-.52-2.17,1.3-.45s-.42-4-2.59-2.74C504,175.91,505.44,180.84,507.61,180.21Z"/><path class="cls-37" d="M524.13,182s-.34,3.77-1.73,5.75c-1.68,2.39-4,5.29-10.73,4.27s-5.28-15.29-5.28-15.29a31.94,31.94,0,0,1,.93-10c1.36-4.43,10.51-6,17.58-3.09,0,0,1.9,2.18.28,11a2.73,2.73,0,0,1,3.49-.15c1.52,1,1.5,3.11.78,5C528.58,181.7,526,183.48,524.13,182Z"/><path class="cls-64" d="M506.26,179.77s-5.71,15,4.77,16.78c6.07,1,11.36-2.08,13.25-6,1.19-2.5.06-8.34-.53-11.18-.09-.42-.39,0-.43-.3l-1.62,6.61a12.51,12.51,0,0,0-9.07-4.24c-5.22-.12-6.12,3.12-6.12,3.12Z"/><path class="cls-2" d="M517.4,183.34a6.11,6.11,0,0,1-1.88.79,8.19,8.19,0,0,1-2,.24c-.34,0-.68,0-1,0s-.68,0-1-.09a4.49,4.49,0,0,1-1-.27,1.73,1.73,0,0,1-.89-.63.09.09,0,0,1,0-.12.06.06,0,0,1,.07,0h0a13.66,13.66,0,0,0,1.88.31,16.26,16.26,0,0,0,1.94.3,8.67,8.67,0,0,0,3.83-.6h0a.07.07,0,0,1,.08,0A.05.05,0,0,1,517.4,183.34Z"/><path class="cls-64" d="M528.52,163.48c-1-1.91-4.63-3.1-7.74-3.8,0-.27-.12-.54-.2-.82-1.42-4.43-6.34-4.32-6.34-4.32v2.86a7.75,7.75,0,0,1-.75-3.37c-3.63,2.15-3.38,4.83-3.38,4.83l-.81-2.07s-2.55,2-2.57,4.79a3.56,3.56,0,0,0-1.28,1.62c-1.21,3.6.94,13.49.94,13.49l.47-7.13a15.71,15.71,0,0,1,1.17-4.13s.79.91,5.46.91h.82a45.19,45.19,0,0,0,8.32-1.06,26.53,26.53,0,0,0,1,5c.43,1.36-.34,9.05-.34,9.05s.19.92.46,0c.49-1.68,1.44-5.67,3.39-5.49C527.14,173.87,530.37,167,528.52,163.48Z"/><path class="cls-38" d="M525,181.17l1-2-1.31-.69s1.25-3.86,3.32-2.2C529.66,177.6,527.15,182.18,525,181.17Z"/><path class="cls-1" d="M516.3,176.85c0,.5.65.6,1.46.6s1.46-.07,1.47-.58-.65-.92-1.46-.92S516.3,176.34,516.3,176.85Z"/><path class="cls-64" d="M521.7,173.18a26,26,0,0,0-3-.65c-.73,0-3.49.53-3.73.26a4,4,0,0,1-.45-1.19,30.21,30.21,0,0,1,4.55-.27A5.17,5.17,0,0,1,521.7,173.18Z"/><path class="cls-1" d="M508.21,176.74c0,.5.65.6,1.46.61s1.46-.08,1.47-.59-.65-.92-1.46-.92S508.21,176.23,508.21,176.74Z"/><path class="cls-64" d="M507.16,173.17c0,.08,1.28-.89,1.78-.85s2.77.88,3,.62a5.63,5.63,0,0,0,.44-1.17,20.51,20.51,0,0,0-3.73-.45C508.06,171.48,507.39,172.55,507.16,173.17Z"/><path class="cls-42" d="M512.1,181.41s1.86.11,1.87-.4-3.83-1.43-4.07-1.09S511.29,181.1,512.1,181.41Z"/><path class="cls-38" d="M512.5,173.67a9.55,9.55,0,0,1,0,3.18c-.36.82-2.23,2.54-2.31,2.94s1.8,1.55,1.94,1.62-2.76-.65-2.59-1.56,2.57-3,2.69-3.43S512.5,173.67,512.5,173.67Z"/><g class="cls-40"><path class="cls-65" d="M505.33,174s-1,4.32,3.29,4.32,3.26-4.46,3.26-4.46C507.16,173.22,505.33,174,505.33,174Z"/><path class="cls-65" d="M521.21,173.84c-4.72-.62-6.55.14-6.55.14s-1,4.32,3.29,4.32S521.21,173.84,521.21,173.84Z"/></g><path class="cls-19" d="M524.68,174.89v-.71l-3.29-.54-.15,0c-4.72-.62-6.59.12-6.66.15l-.11,0,0,.1a2.46,2.46,0,0,0-2.34-.08v-.05l0-.15-.15,0c-4.72-.62-6.59.12-6.66.15l-.11,0,0,.11a4.47,4.47,0,0,0,.6,3.43,4.2,4.2,0,0,0,5.82,0,4.12,4.12,0,0,0,.66-3c.73-.54,1.93-.07,2.18,0a4.09,4.09,0,0,0,.67,2.94,4.2,4.2,0,0,0,5.82,0,4,4,0,0,0,.68-2.73h0Zm-13.5,2.18a3,3,0,0,1-2.56,1,3.1,3.1,0,0,1-2.56-1,3.94,3.94,0,0,1-.53-2.93c.45-.14,2.31-.6,6.16-.11A4,4,0,0,1,511.18,177.07Zm9.33,0a3,3,0,0,1-2.56,1,3.1,3.1,0,0,1-2.56-1,3.94,3.94,0,0,1-.53-2.93c.45-.14,2.31-.6,6.16-.11A4,4,0,0,1,520.51,177.07Z"/><path class="cls-24" d="M551,212.12c-6.54-9-19.87,2.39-14.67,13.4s13.13,21.09,14.67,31.32C552,264,535.1,291.65,535.1,291.65c-.12,1.3,7.55,9.07,8.91,9.1,0,0,29.08-30.89,26-47.88C567.56,239.05,559.62,225.09,551,212.12Z"/><path class="cls-55" d="M551.9,256.84c2.26-2,10.48-5.39,11.17-4.52.55.7-7.52,3.54-7.52,3.54s10.36-3.25,10.94-1.05c.32,1.2-6.38.33-13.81,2.72C552.68,257.53,550.57,258,551.9,256.84Z"/><path class="cls-66" d="M533,288.33a35.56,35.56,0,0,0,11.86,13,1,1,0,0,1-.63,1.08c-.77.24-2.58-1.27-6-4.62-2.28-2.24-6.1-7.87-6.2-8.65S533,288.33,533,288.33Z"/><path class="cls-25" d="M269.74,428.44c0,2.2-31.08,4-69.41,4s-69.41-1.78-69.41-4,31.08-4,69.41-4S269.74,426.24,269.74,428.44Z"/><path class="cls-4" d="M173.14,408.07v13.05s.6,2.73.65,3.65-.3,3.64-.3,3.64c-1.11.9-4.74,1.33-6.6.89l-.37-.28a17.27,17.27,0,0,1-2.9,1c-2.6.74-10.42,1.26-11.62.36,0,0-1.16-3.85,2-4.81,8-2.38,9.11-4.61,9.57-7.12.58-3.17,1.05-11.06,1.05-11.06Z"/><g class="cls-67"><path class="cls-68" d="M161.68,421.57a4.69,4.69,0,0,1,3.42.8c1.19,1.09,2.13,2,3.85,1.59,4.41-1.08,4-4.52,6-3l.43,9-24.54,2.28-.4-6.83Z"/><path class="cls-69" d="M151.37,429.39s.38,1.16,8.1.41,8.31-2.54,14.35-2.69l-.2,2.13-22.53,3.12Z"/></g><path class="cls-4" d="M205.05,407.76l.9,13s-.41,2.76-.39,3.68a36.44,36.44,0,0,0,.55,3.62c1.17.81,4.82,1,6.64.43l.35-.31a17,17,0,0,0,3,.75c2.65.55,10.48.53,11.62-.44,0,0,.89-3.93-2.37-4.66-8.16-1.83-9.4-4-10-6.45-.79-3.12-1.8-11-1.8-11Z"/><g class="cls-70"><path class="cls-68" d="M217.41,420.45a4.63,4.63,0,0,0-3.35,1c-1.12,1.17-2,2.15-3.74,1.85-4.47-.77-4.32-4.23-6.18-2.63l.18,9,24.65.58-.07-6.84Z"/><path class="cls-69" d="M228.23,427.54s-.3,1.18-8,1-8.46-2-14.5-1.69l.35,2.11,22.69,1.56Z"/></g><path class="cls-68" d="M195.15,221.17c3.59,7.56,27.37,36.33,36.8,40.09,14.06,5.59,37.05-3.85,47-7.75,3.78-2.17-.24-12.63-3.63-12.14,0,0-32.55,4.67-36.1,2.69-3-1.71-18.18-25.35-31-35.3C203.84,205.41,190.34,211,195.15,221.17Z"/><path class="cls-6" d="M279.24,246.45a7.84,7.84,0,0,1,.05,5.06,1.83,1.83,0,0,1-1.12,1.14,2.3,2.3,0,0,1-2.16-.81,8.78,8.78,0,0,1-2.13-3.79,7.79,7.79,0,0,1,0-5.07,1.85,1.85,0,0,1,1.12-1.12,1.35,1.35,0,0,1,.57-.05h0C276.9,242,278.46,243.86,279.24,246.45Z"/><path class="cls-2" d="M298.34,239.79a8.45,8.45,0,0,1-.93,1.08.9.9,0,0,1,.43,1.49,8.88,8.88,0,0,1-1.58,1.38,1.11,1.11,0,0,1-.18.92c-2.42,3.56-13.22,7.19-16.13,6.73a.7.7,0,0,0-.21,0c-.83,0-2.53.63-3.18.37l-.11-.05a8.84,8.84,0,0,1-2.13-3.78,7.79,7.79,0,0,1,0-5.07c.33-.44.93-.49,1.69-1.17h0a6.34,6.34,0,0,0,1.24-1.58c.46-.81,2.1-2.8,5.71-5.4a23.57,23.57,0,0,1,4.75-1.76c2-.61,1.68,1.78.6,2.71-1.55,1.32-2.33,1.57-2.82,2.28a5.88,5.88,0,0,0-.63,1.13,51.56,51.56,0,0,0,7-1.55,36.75,36.75,0,0,0,4.2-2.06c.8-.4,1.52.6,1,1.46a11.22,11.22,0,0,1-4.09,3.22c-.81.35-1.65.68-2.43,1a16.14,16.14,0,0,0,2.94-.71c1.3-.46,2.36-1.2,4.15-2C298.38,238,298.94,239,298.34,239.79Z"/><path class="cls-46" d="M183.68,281.35c3-12.84,21.1-14.15,22.88-1.12,2.55,18.69,9.86,139.51,9.86,139.51-3.51,2.84-8.56,1.37-11.74.35C204.68,420.09,175.8,314.92,183.68,281.35Z"/><path class="cls-44" d="M160.87,277.15c6.14-11.65,24.51-8,25,5.17,1.42,41.73-12.08,138.34-12.08,138.34a11.3,11.3,0,0,1-11.15-.4S149.33,299,160.87,277.15Z"/><path class="cls-44" d="M203.7,289.22c-.16,6.88-6.95,14.79-18.15,14.52s-25.87-6.06-25.7-12.94c.54-22.18,9.74-34.05,20.94-33.78S204.26,266.62,203.7,289.22Z"/><path class="cls-60" d="M206.9,283.05c-.1,4-12.06,5.78-25.11,5.46S159,286.05,159.07,282c.32-13,11.66-20.29,24.7-20S207.22,269.8,206.9,283.05Z"/><path class="cls-71" d="M153.28,212.35c4.94-8.28,28.23-15.79,29.43-15.83,8.24-.23,26,11,27.9,15.19,1.64,3.69-4.75,35.07-4.05,49.09.36,7.31,1.3,12.77,1.12,20.14-.16,6.87-49.12,7-49,.09.14-5.69,4.29-9.89,4.23-15.84C162.82,253.3,151.16,215.9,153.28,212.35Z"/><path class="cls-1" d="M171.3,200.11s11.63,41.43,6.85,67.61c-1.83,10-15.31,21.64-19.08,29.61-2.3,4.86-2.58,16.29-2.58,16.29s-14.21-5.42-14.19-16.29c0-5.85,16.77-39,16.77-39s-11.47-36.75-8.67-45.62S171.3,200.11,171.3,200.11Z"/><path class="cls-72" d="M164.43,262.05c6.22-17.53,5-56.91-10.54-54.27a11.14,11.14,0,0,0-3.49,4.92c-2.8,8.87,8.67,45.62,8.67,45.62a129.76,129.76,0,0,0-8.49,17C155.55,270.58,162.17,268.44,164.43,262.05Z"/><path class="cls-6" d="M185.72,219.39a1.15,1.15,0,1,1-1.12-1.17A1.15,1.15,0,0,1,185.72,219.39Z"/><path class="cls-6" d="M187.25,231.58a1.15,1.15,0,1,1-1.12-1.17A1.14,1.14,0,0,1,187.25,231.58Z"/><path class="cls-6" d="M188.13,243.45a1.14,1.14,0,0,1-2.28-.06,1.14,1.14,0,1,1,2.28.06Z"/><path class="cls-6" d="M189,254.41a1.14,1.14,0,0,1-2.28-.06,1.14,1.14,0,1,1,2.28.06Z"/><path class="cls-6" d="M189,265.22a1.14,1.14,0,1,1-1.11-1.17A1.15,1.15,0,0,1,189,265.22Z"/><path class="cls-6" d="M189.3,276a1.14,1.14,0,1,1-1.11-1.17A1.13,1.13,0,0,1,189.3,276Z"/><path class="cls-69" d="M151.81,210c6.59-9.08,17.34,3.89,12.09,15s-12,22.52-13.5,32.84c-1.08,7.2,16,35.1,16,35.1.12,1.32-7.61,9.16-9,9.18,0,0-29.32-31.14-26.25-48.28C133.65,239.85,139.24,223.85,151.81,210Z"/><path class="cls-72" d="M149.44,257.79c-2.28-2-10.56-5.43-11.26-4.55-.56.7,7.58,3.56,7.58,3.56s-10.45-3.27-11-1.06c-.32,1.22,6.43.34,13.92,2.74C148.65,258.48,150.78,259,149.44,257.79Z"/><path class="cls-66" d="M168.46,289.55a35.89,35.89,0,0,1-12,13.07,1,1,0,0,0,.64,1.09c.78.24,2.59-1.28,6-4.66,2.3-2.26,6.15-7.94,6.25-8.72S168.46,289.55,168.46,289.55Z"/><path class="cls-1" d="M193.53,199.53s2.09,60.7,2.7,64.52,5,43.94,7.49,47,9.95-1.44,9.95-1.44l-5.81-50.56s5.7-39.8,3.55-46.89S193.53,199.53,193.53,199.53Z"/><path class="cls-73" d="M173.32,194.39c1.46-1.94,16.11-2.29,16.89-.26l-.34,8.84-17.44-.14Z"/><path class="cls-2" d="M177.11,182.73a42.67,42.67,0,0,1-.63,10.21,54.4,54.4,0,0,1-4,10.54l7.88.61,5.49,7.65,1.4-9,6-2.21s-5.73-3.52-5.53-9.74c.18-5.43.32-8.44.32-8.44Z"/><path class="cls-37" d="M193.09,181c-1.69-1.29-2.11-5.41-.81-7.48a2.4,2.4,0,0,1,3.12-.91c1.61.67,2.09,2.71,1.88,4.73C197,179.8,194.93,182.44,193.09,181Z"/><path class="cls-38" d="M193.65,180.08l.41-2.22-1.34-.38s.21-4.07,2.47-2.89C197.05,175.55,195.87,180.59,193.65,180.08Z"/><path class="cls-37" d="M177.11,182.73s.54,3.77,2,5.7c1.82,2.31,4.32,5.11,11,3.72s4.49-15.68,4.49-15.68a32.19,32.19,0,0,0-1.48-10.05c-1.61-4.4-10.91-5.45-17.87-2.16,0,0-1.8,2.29.32,11.08a2.76,2.76,0,0,0-3.53,0c-1.48,1.11-1.34,3.21-.51,5.08C172.62,182.7,175.35,184.36,177.11,182.73Z"/><path class="cls-3" d="M184,183.64a8.56,8.56,0,0,0,3.89.39,14.67,14.67,0,0,0,1.93-.39,15.21,15.21,0,0,0,1.88-.42h0a.08.08,0,0,1,.11,0,.06.06,0,0,1,0,.07,1.77,1.77,0,0,1-.85.69,4.57,4.57,0,0,1-1,.32c-.34.07-.67.11-1,.15s-.68.08-1,.1a9.48,9.48,0,0,1-2.06-.14,6.08,6.08,0,0,1-1.94-.69.07.07,0,0,1,0-.09s.05,0,.08,0Z"/><path class="cls-74" d="M171.69,164.35a16.25,16.25,0,0,1,13.9-9.76l.15,2.88a7.93,7.93,0,0,0,.58-3.44c3.77,2,3.67,4.68,3.67,4.68l.69-2.13c5.75,2.95,6.12,9.89,4,19.89l-.85-7.16a15.81,15.81,0,0,0-1.41-4.1s-.74,1-5.45,1.22l-.58,0-.17,0h-.07a45,45,0,0,1-8.44-.62A27,27,0,0,1,177,171c-.37,1.4.83,9.1.83,9.1s-.14.93-.46,0c-.59-1.67-1.22-6.33-5.23-4.71C172.13,175.38,170,168,171.69,164.35Z"/><path class="cls-38" d="M176.23,182l-1.11-2,1.27-.76s-1.46-3.83-3.45-2.05C171.3,178.64,174.08,183.11,176.23,182Z"/><path class="cls-1" d="M184.72,177.16c0,.5-.62.64-1.43.69s-1.48,0-1.51-.51.6-1,1.41-1S184.69,176.65,184.72,177.16Z"/><path class="cls-74" d="M179.08,173.75c0,.08,2.29-.8,3-.82s3.55.35,3.77.07a4,4,0,0,0,.39-1.22,30.88,30.88,0,0,0-4.6,0,5.64,5.64,0,0,0-2.28.89A1.61,1.61,0,0,0,179.08,173.75Z"/><path class="cls-1" d="M192.86,176.61c0,.51-.62.64-1.43.69s-1.48,0-1.51-.5.6-1,1.41-1S192.83,176.1,192.86,176.61Z"/><path class="cls-74" d="M193.73,173c0,.07-1.34-.83-1.84-.76s-2.75,1-3,.78a5.49,5.49,0,0,1-.5-1.16,20,20,0,0,1,3.72-.65,2.93,2.93,0,0,1,1.34.61A1.82,1.82,0,0,1,193.73,173Z"/><path class="cls-42" d="M189.19,181.53s-1.86.21-1.89-.31,3.77-1.64,4-1.31S190,181.17,189.19,181.53Z"/><path class="cls-38" d="M188.38,173.76a9.52,9.52,0,0,0,.2,3.2c.4.8,2.38,2.43,2.48,2.83s-1.73,1.66-1.87,1.74,2.75-.81,2.53-1.71-2.75-2.88-2.9-3.32S188.38,173.76,188.38,173.76Z"/><g class="cls-40"><path class="cls-65" d="M195.61,173.68s1.25,4.29-3.08,4.52-3.52-4.31-3.52-4.31C193.72,173,195.61,173.68,195.61,173.68Z"/><path class="cls-65" d="M179.61,174.4c4.72-.89,6.61-.22,6.61-.22s1.24,4.29-3.08,4.53S179.61,174.4,179.61,174.4Z"/></g><path class="cls-75" d="M179.32,175.19h0a4,4,0,0,0,.83,2.71,4.23,4.23,0,0,0,5.86-.3,4.06,4.06,0,0,0,.52-3c.25-.12,1.43-.67,2.19-.15a4.15,4.15,0,0,0,.83,2.94,4.23,4.23,0,0,0,5.86-.3,4.53,4.53,0,0,0,.42-3.48l0-.12-.1,0c-.08,0-2-.68-6.72.2l-.15,0,0,.15v.06a2.43,2.43,0,0,0-2.35.2l0-.1-.11,0c-.08,0-2-.68-6.72.2l-.15,0-3.28.72,0,.72Zm9.89-1.11c3.85-.7,5.75-.34,6.21-.22a4,4,0,0,1-.38,3,3.81,3.81,0,0,1-5.15.27A4.07,4.07,0,0,1,189.21,174.08Zm-9.4.51a15.85,15.85,0,0,1,6.22-.23,3.92,3.92,0,0,1-.39,3,3.06,3.06,0,0,1-2.51,1.14,3.1,3.1,0,0,1-2.64-.87A4.1,4.1,0,0,1,179.81,174.59Z"/><path class="cls-71" d="M173.32,194.39s-.42,1.74,3,4.73c1.06.94,4.69,3.22,4.69,3.22l5.31,10-1.19.19-5-9.31-5,7.48c-1.58-2.11-4.15-7.08-4.41-9.79Z"/><polygon class="cls-73" points="175.08 210.71 180.06 203.23 185.1 212.54 179.12 207.73 175.08 210.71"/><path class="cls-71" d="M190.21,194.13c.08,2.38-1.57,6.83-2.91,8l-2.2,10.38,1.19-.19,1.79-9.36,3.59,7a15.56,15.56,0,0,0,1.43-10.89Z"/><polygon class="cls-73" points="191.67 210.04 188.08 202.99 186.29 212.34 188.18 207.26 191.67 210.04"/><path class="cls-6" d="M142.92,356.54h-3.71v-3.71a1.53,1.53,0,0,0-1.52-1.53h0a1.53,1.53,0,0,0-1.53,1.53v3.71h-3.71a1.53,1.53,0,0,0-1.53,1.53h0a1.53,1.53,0,0,0,1.53,1.52h3.71v3.71a1.52,1.52,0,0,0,1.53,1.53h0a1.52,1.52,0,0,0,1.52-1.53v-3.71h3.71a1.52,1.52,0,0,0,1.53-1.52h0A1.52,1.52,0,0,0,142.92,356.54Z"/><path class="cls-6" d="M470.11,389.92H466.4v-3.71a1.52,1.52,0,0,0-1.53-1.53h0a1.52,1.52,0,0,0-1.52,1.53v3.71h-3.71a1.52,1.52,0,0,0-1.53,1.52h0a1.52,1.52,0,0,0,1.53,1.53h3.71v3.71a1.52,1.52,0,0,0,1.52,1.53h0a1.52,1.52,0,0,0,1.53-1.53V393h3.71a1.52,1.52,0,0,0,1.53-1.53h0A1.52,1.52,0,0,0,470.11,389.92Z"/><path class="cls-32" d="M619.83,250.29h-3.71v-3.71a1.54,1.54,0,0,0-1.53-1.53h0a1.54,1.54,0,0,0-1.53,1.53v3.71h-3.71a1.52,1.52,0,0,0-1.52,1.53h0a1.52,1.52,0,0,0,1.52,1.52h3.71v3.71a1.53,1.53,0,0,0,1.53,1.53h0a1.53,1.53,0,0,0,1.53-1.53v-3.71h3.71a1.52,1.52,0,0,0,1.52-1.52h0A1.52,1.52,0,0,0,619.83,250.29Z"/><path class="cls-32" d="M140,187.27h-3.71v-3.71a1.54,1.54,0,0,0-1.53-1.53h0a1.53,1.53,0,0,0-1.53,1.53v3.71h-3.71A1.53,1.53,0,0,0,128,188.8h0a1.53,1.53,0,0,0,1.53,1.52h3.71V194a1.52,1.52,0,0,0,1.53,1.53h0a1.53,1.53,0,0,0,1.53-1.53v-3.71H140a1.52,1.52,0,0,0,1.52-1.52h0A1.52,1.52,0,0,0,140,187.27Z"/><path class="cls-76" d="M314.13,86.76A10.84,10.84,0,1,1,303.29,97.6,10.85,10.85,0,0,1,314.13,86.76Zm2.7-14.59a25.65,25.65,0,0,0-5.4,0l-.5,7.84a17.67,17.67,0,0,0-3.62,1.06l-4.66-6.32a25.81,25.81,0,0,0-4.54,2.92l3.82,6.86a18.18,18.18,0,0,0-2.48,2.85l-7.33-2.8a25.3,25.3,0,0,0-2.24,4.91l6.92,3.71a18.14,18.14,0,0,0-.54,3.74l-7.68,1.61a25.38,25.38,0,0,0,.76,5.34l7.83-.62a17.74,17.74,0,0,0,1.57,3.43l-5.59,5.51a25.41,25.41,0,0,0,3.53,4.08l6.25-4.75a18.21,18.21,0,0,0,3.17,2l-1.72,7.66a25.15,25.15,0,0,0,5.17,1.52l2.69-7.38a17.06,17.06,0,0,0,3.78,0l2.69,7.38a25.33,25.33,0,0,0,5.17-1.52l-1.72-7.66a18.21,18.21,0,0,0,3.17-2l6.25,4.75a25.41,25.41,0,0,0,3.53-4.08l-5.59-5.51a17.74,17.74,0,0,0,1.57-3.43l7.83.62a25.38,25.38,0,0,0,.76-5.34L332,96.94a18.14,18.14,0,0,0-.54-3.74l6.92-3.71a25.3,25.3,0,0,0-2.24-4.91l-7.34,2.8a18.11,18.11,0,0,0-2.47-2.85l3.82-6.86a25.81,25.81,0,0,0-4.54-2.92L321,81.07A17.67,17.67,0,0,0,317.33,80Z"/><path class="cls-77" d="M361.11,102.87a9.65,9.65,0,1,1-11.05,8A9.65,9.65,0,0,1,361.11,102.87Zm3-12.77c-.66-.13-1.32-.24-2-.31l-2.48,6.69a16.92,16.92,0,0,0-2.84.24l-3.57-6.18c-.65.18-1.28.4-1.91.64l.91,7.09a16.8,16.8,0,0,0-2.4,1.53l-6-3.82c-.48.47-.95,1-1.39,1.46l4.1,5.85a16.75,16.75,0,0,0-1.41,2.47l-7.12-.57c-.21.64-.4,1.28-.55,1.93l6.35,3.28a15.85,15.85,0,0,0-.11,2.84l-6.57,2.81c.11.66.24,1.32.41,2l7.15,0a15.82,15.82,0,0,0,1.22,2.56l-4.51,5.54c.4.54.83,1.05,1.28,1.55l6.3-3.36a16.47,16.47,0,0,0,2.28,1.7l-1.43,7q.92.43,1.86.78l4-5.91a15.67,15.67,0,0,0,2.81.45l2,6.86c.67,0,1.34-.08,2-.17l.82-7.1A15.22,15.22,0,0,0,366,127l5,5.15c.58-.33,1.15-.7,1.7-1.08l-2.58-6.66a16.59,16.59,0,0,0,2-2.06l6.78,2.26c.36-.57.69-1.15,1-1.75l-5.38-4.7a16.33,16.33,0,0,0,.78-2.73l7-1.15c.05-.67.08-1.35.07-2l-7-1.66a15.59,15.59,0,0,0-.57-2.78l5.71-4.3c-.27-.62-.56-1.22-.87-1.81l-6.93,1.76a15.92,15.92,0,0,0-1.81-2.2L374,94.77c-.52-.42-1.06-.82-1.61-1.2l-5.32,4.77a15.93,15.93,0,0,0-2.62-1.1Z"/><path class="cls-77" d="M363.18,112.46a3.44,3.44,0,1,1-3.44-3.44A3.44,3.44,0,0,1,363.18,112.46Z"/></g></g></svg>