<svg width="74" height="74" viewBox="0 0 74 74" fill="none" xmlns="http://www.w3.org/2000/svg">
<path d="M8.19833 23.6047L19.239 26.7591L20.6636 21.771C20.939 20.8052 21.9441 20.245 22.9099 20.5194L33.4777 23.5383C34.4435 23.8136 35.0037 24.8196 34.7284 25.7845L33.3029 30.7769L33.9566 30.9631L40.698 29.0376L39.2716 24.0461C38.9971 23.0803 39.5565 22.0743 40.5223 21.7999L51.0901 18.7801C52.0559 18.5057 53.0619 19.0659 53.3363 20.0317L54.761 25.0198L65.8017 21.8663C66.7674 21.591 67.7735 22.1512 68.0479 23.117L73.3418 41.648C73.6172 42.6138 73.0569 43.6198 72.0911 43.8943L67.1468 45.3076C66.9737 48.7949 64.5929 51.8348 61.2174 52.7988L40.0259 58.8532L39.6098 60.3093C39.3354 61.2751 38.3294 61.8353 37.3636 61.56L12.7826 54.5381C9.4071 53.5732 7.02626 50.5342 6.85321 47.046L1.90886 45.6336C0.943064 45.3591 0.38369 44.3531 0.658133 43.3873L5.95209 24.8563C6.22653 23.8905 7.23253 23.3303 8.19833 23.6047V23.6047ZM48.9994 60.5453C47.7854 58.4896 50.9136 56.6428 52.1276 58.6967L55.8203 64.9547C57.0343 67.0096 53.9062 68.8564 52.6922 66.8024L48.9994 60.5453ZM58.2361 60.6615C56.0572 59.6896 57.536 56.3771 59.7141 57.349L67.305 60.7341C69.4839 61.7069 68.0051 65.0185 65.827 64.0466L58.2361 60.6615ZM21.8025 14.9965C20.4582 16.9674 17.4586 14.9204 18.8028 12.9495L22.8041 7.1023C24.1484 5.13225 27.148 7.17921 25.8038 9.14926L21.8025 14.9965V14.9965ZM17.407 16.1528C18.1832 18.4156 14.7421 19.5947 13.9669 17.3327L11.5048 10.1518C10.7286 7.88892 14.1696 6.70987 14.9449 8.97184L17.407 16.1528V16.1528ZM37.9431 52.9081L29.1111 50.4949C26.8115 49.8691 27.7633 46.3713 30.0637 46.9979L38.9386 49.4225L40.3099 44.6215L31.6912 42.3376C29.3829 41.7302 30.3059 38.2193 32.6159 38.8267L41.308 41.1297L42.439 37.1687C38.4788 36.0368 34.5178 34.905 30.5576 33.774C29.5918 33.4995 29.0315 32.4935 29.306 31.5277L30.7324 26.5362L23.6615 24.5155L22.236 29.5044C21.9616 30.4693 20.9556 31.0295 19.9898 30.7551L15.229 29.3951L10.6535 45.4107C9.9656 47.8204 11.3675 50.3516 13.7781 51.0403L36.6128 57.564C37.0559 56.0117 37.4991 54.4595 37.9431 52.9081ZM40.5747 32.8545L45.1843 34.1708C46.1501 34.4461 46.7104 35.4521 46.4351 36.417L41.2023 54.7348L60.2219 49.3019C62.6325 48.6131 64.0344 46.0811 63.3465 43.6714L58.771 27.6558L54.0102 29.0158C53.0444 29.2911 52.0384 28.7309 51.764 27.7651L50.3393 22.777L43.2676 24.7969L44.694 29.7884C44.9685 30.7542 44.4082 31.7602 43.4424 32.0347L40.5747 32.8545V32.8545ZM65.0509 25.8623L62.268 26.6568L66.5629 41.6926L69.3458 40.8973L65.0509 25.8623V25.8623ZM11.732 28.3961L8.94911 27.6008L4.65416 42.6366L7.43705 43.431L11.732 28.3961V28.3961Z" fill="white" fill-opacity="0.12"/>
</svg>
