<svg width="60" height="60" viewBox="0 0 60 60" fill="none" xmlns="http://www.w3.org/2000/svg">
<path d="M58.0514 49.109L48.3073 39.3767C47.1144 38.1838 45.5317 37.5342 43.8427 37.5342C42.7325 37.5342 41.6577 37.8294 40.7128 38.3727L37.571 35.231C40.7718 31.4987 42.7088 26.6562 42.7088 21.3766C42.7088 9.61279 33.1301 0.0340075 21.3544 0.0340075C9.57878 0.0221964 0 9.58917 0 21.3648C0 33.1286 9.57878 42.7074 21.3544 42.7074C26.6458 42.7074 31.4883 40.7704 35.2206 37.5814L38.3624 40.7231C37.8309 41.668 37.5356 42.731 37.5356 43.8413C37.5356 45.5303 38.197 47.1129 39.3899 48.3059L49.264 58.1799C52.1577 61.0736 56.575 60.1051 58.6065 57.7311C60.6735 55.2744 60.4018 51.4594 58.0514 49.109ZM21.3544 39.3767C16.9135 39.3767 12.8386 37.7586 9.69689 35.0775C10.7835 31.6759 13.3229 28.8885 16.6064 27.5066L19.9607 32.6562C20.2678 33.1286 20.7993 33.4121 21.3544 33.4121C21.9213 33.4121 22.441 33.1286 22.7481 32.6562L26.1025 27.5066C29.3859 28.8885 31.9253 31.6641 33.0119 35.0775C29.8702 37.7468 25.7954 39.3767 21.3544 39.3767ZM25.9135 23.8924C25.2048 23.6798 24.4371 23.9514 24.0355 24.5774L21.3544 28.6877L18.6851 24.5774C18.2835 23.9514 17.5158 23.6798 16.8072 23.8924C12.4843 25.2034 8.97641 28.357 7.1457 32.3963C5.61026 30.4239 4.46459 28.1207 3.86222 25.6168H6.25987C7.18113 25.6168 7.92523 24.8727 7.92523 23.9514C7.92523 23.0302 7.18113 22.2861 6.25987 22.2861H3.35434C3.34253 21.979 3.33072 21.6719 3.33072 21.353C3.33072 20.538 3.38978 19.7349 3.49608 18.9553H10.4174C11.3386 18.9553 12.0827 18.2112 12.0827 17.29C12.0827 16.3687 11.3386 15.6246 10.4174 15.6246H4.27561C6.67326 8.50255 13.4292 3.35292 21.3544 3.35292C31.2875 3.35292 39.3781 11.4317 39.3781 21.3648C39.3781 25.5223 37.949 29.3609 35.5749 32.4082C33.7442 28.357 30.2363 25.2152 25.9135 23.8924ZM56.0317 55.5933C54.886 56.8807 52.7364 56.9161 51.6262 55.8177L41.7521 45.9436C40.6537 44.8452 40.3702 43.109 41.7521 41.7389C43.2167 40.2743 45.0711 40.8531 45.9569 41.7389L55.701 51.4712C56.8467 52.6169 57.0357 54.4594 56.0317 55.5933Z" fill="white" fill-opacity="0.12"/>
<path d="M21.3544 6.3175C17.1851 6.3175 13.7953 9.70728 13.7953 13.8766C13.7953 18.0459 17.1851 21.4357 21.3544 21.4357C25.5237 21.4357 28.9135 18.0459 28.9135 13.8766C28.9135 9.70728 25.5237 6.3175 21.3544 6.3175ZM21.3544 18.0931C19.0276 18.0931 17.1261 16.2034 17.1261 13.8766C17.1261 11.5498 19.0158 9.66004 21.3544 9.66004C23.693 9.66004 25.5828 11.5498 25.5828 13.8766C25.5828 16.2034 23.6812 18.0931 21.3544 18.0931Z" fill="white" fill-opacity="0.12"/>
</svg>
