<?xml version="1.0" standalone="no"?>
<!DOCTYPE svg PUBLIC "-//W3C//DTD SVG 20010904//EN"
 "http://www.w3.org/TR/2001/REC-SVG-20010904/DTD/svg10.dtd">
<svg version="1.0" xmlns="http://www.w3.org/2000/svg"  opacity="0.3"
 width="512.000000pt" height="512.000000pt" viewBox="0 0 512.000000 512.000000"
 preserveAspectRatio="xMidYMid meet">

<g transform="translate(0.000000,512.000000) scale(0.100000,-0.100000)"
fill="#ffffff" stroke="none">
<path d="M1840 4867 c-49 -16 -133 -102 -148 -153 -7 -24 -12 -100 -12 -178
l0 -136 296 0 c204 0 310 4 338 12 55 16 138 99 154 154 26 89 9 163 -55 234
-66 73 -96 80 -337 79 -116 -1 -216 -6 -236 -12z m160 -227 l0 -80 -80 0 -80
0 0 80 0 80 80 0 80 0 0 -80z m320 0 l0 -80 -80 0 -80 0 0 80 0 80 80 0 80 0
0 -80z"/>
<path d="M3986 4870 c-63 -16 -153 -70 -197 -117 -22 -24 -55 -74 -72 -111
-29 -61 -32 -76 -32 -163 0 -90 2 -99 37 -171 45 -91 103 -147 196 -191 61
-29 76 -32 162 -32 86 0 101 3 162 32 93 44 151 100 196 191 35 72 37 81 37
172 0 91 -2 100 -37 172 -68 136 -188 217 -336 224 -42 2 -94 -1 -116 -6z"/>
<path d="M946 4230 c-63 -16 -153 -70 -197 -117 -22 -24 -55 -74 -72 -111 -29
-61 -32 -76 -32 -163 0 -90 2 -99 37 -171 45 -91 103 -147 196 -191 61 -29 76
-32 162 -32 86 0 101 3 162 32 93 44 151 100 196 191 35 72 37 81 37 172 0 91
-2 100 -37 172 -68 136 -188 217 -336 224 -42 2 -94 -1 -116 -6z"/>
<path d="M2555 3910 c-44 -18 -70 -59 -70 -111 0 -42 5 -53 33 -81 l32 -33
478 -5 c441 -5 480 -6 515 -24 49 -24 110 -95 125 -144 9 -29 12 -371 12
-1336 l0 -1296 160 0 160 0 0 920 0 920 80 0 80 0 0 -920 0 -920 160 0 160 0
0 1320 0 1320 80 0 80 0 0 -600 c0 -671 -7 -612 74 -588 58 17 138 99 155 158
9 34 11 161 9 515 l-3 470 -26 66 c-38 98 -71 149 -141 219 -72 71 -187 132
-282 149 -72 13 -1840 14 -1871 1z"/>
<path d="M2011 3520 c-189 -117 -330 -197 -370 -211 -63 -22 -85 -23 -441 -29
-367 -6 -377 -7 -452 -32 -119 -40 -204 -92 -294 -182 -90 -90 -142 -174 -183
-294 l-26 -77 0 -377 c0 -365 1 -377 21 -404 39 -53 70 -68 144 -72 l70 -4 0
441 0 441 80 0 80 0 0 -1080 0 -1080 160 0 160 0 0 720 0 720 80 0 80 0 0
-720 0 -720 160 0 159 0 3 1048 c3 1042 3 1047 24 1103 47 122 100 197 184
262 30 24 236 160 456 302 l402 259 -49 29 c-47 26 -101 88 -114 128 -4 10
-12 19 -18 18 -7 0 -149 -85 -316 -189z"/>
<path d="M2560 3027 c-49 -16 -133 -102 -148 -153 -28 -94 -8 -169 63 -239 68
-69 94 -75 325 -75 231 0 257 6 325 75 66 65 75 99 75 269 l0 136 -302 -1
c-190 -1 -316 -5 -338 -12z m160 -227 l0 -80 -80 0 -80 0 0 80 0 80 80 0 80 0
0 -80z m320 0 l0 -80 -80 0 -80 0 0 80 0 80 80 0 80 0 0 -80z"/>
<path d="M3440 707 c-49 -16 -133 -102 -148 -153 -7 -24 -12 -100 -12 -178 l0
-136 800 0 800 0 0 136 c0 163 -10 200 -67 264 -74 83 -50 80 -737 79 -408 -1
-612 -5 -636 -12z"/>
<path d="M400 387 c-39 -12 -140 -107 -140 -131 0 -14 79 -16 780 -16 701 0
780 2 780 16 0 27 -101 119 -146 132 -55 16 -1222 15 -1274 -1z"/>
</g>
</svg>
