<?xml version="1.0" standalone="no"?>
<!DOCTYPE svg PUBLIC "-//W3C//DTD SVG 20010904//EN"
 "http://www.w3.org/TR/2001/REC-SVG-20010904/DTD/svg10.dtd">
<svg version="1.0" xmlns="http://www.w3.org/2000/svg"  opacity="0.3"
 width="225.000000pt" height="225.000000pt" viewBox="0 0 225.000000 225.000000"
 preserveAspectRatio="xMidYMid meet">

<g transform="translate(0.000000,225.000000) scale(0.100000,-0.100000)"
fill="#ffffff" stroke="none">
<path d="M490 2134 c-144 -53 -229 -182 -218 -334 6 -77 40 -160 83 -200 l25
-23 0 92 c0 51 5 112 11 135 41 164 253 211 367 82 41 -47 52 -91 52 -216 l1
-105 31 35 c110 125 111 317 3 438 -66 74 -133 105 -230 109 -56 2 -94 -2
-125 -13z"/>
<path d="M524 1836 l-34 -34 0 -433 c0 -238 -3 -429 -7 -425 -5 4 -42 71 -83
149 -70 133 -78 143 -121 165 -42 21 -51 22 -93 11 -81 -20 -133 -106 -108
-178 6 -16 97 -168 202 -337 106 -169 196 -321 201 -338 5 -17 9 -67 9 -112 0
-68 4 -87 23 -115 45 -68 56 -70 393 -67 365 4 359 2 279 92 -61 67 -126 191
-146 276 -19 76 -16 221 5 300 46 171 178 330 339 406 20 10 37 22 37 27 0 5
-13 22 -29 38 -24 24 -38 29 -77 29 -42 0 -51 -4 -86 -42 -27 -30 -38 -36 -38
-24 0 10 -15 33 -34 52 -28 28 -42 34 -76 34 -36 0 -48 -6 -82 -40 -45 -44
-48 -46 -48 -26 0 8 -12 28 -26 45 -49 59 -133 50 -180 -18 l-24 -36 0 273 c0
292 -3 312 -52 346 -12 9 -42 16 -66 16 -37 0 -50 -6 -78 -34z"/>
<path d="M1020 1820 l0 -40 335 0 335 0 0 -265 c0 -246 1 -265 18 -265 9 0 27
-3 40 -6 l22 -6 0 299 c0 219 -3 302 -12 311 -9 9 -106 12 -375 12 l-363 0 0
-40z"/>
<path d="M1489 1127 c-224 -76 -369 -273 -369 -502 0 -354 354 -611 687 -500
174 59 304 194 348 360 22 84 20 218 -5 297 -51 165 -201 310 -365 353 -88 23
-216 19 -296 -8z m384 -358 c8 -11 13 -28 10 -38 -6 -25 -256 -271 -274 -271
-8 0 -57 43 -109 95 -89 89 -93 95 -82 120 19 42 50 32 122 -40 l65 -65 110
110 c60 61 117 110 127 110 9 0 23 -9 31 -21z"/>
</g>
</svg>
