<?xml version="1.0" standalone="no"?>
<!DOCTYPE svg PUBLIC "-//W3C//DTD SVG 20010904//EN"
 "http://www.w3.org/TR/2001/REC-SVG-20010904/DTD/svg10.dtd">
<svg version="1.0" xmlns="http://www.w3.org/2000/svg" opacity="0.3"
 width="160.000000pt" height="160.000000pt" viewBox="0 0 860.000000 981.000000"
 preserveAspectRatio="xMidYMid meet">

<g transform="translate(0.000000,981.000000) scale(0.100000,-0.100000)"
fill="#ffffff" stroke="none">
<path d="M2286 9789 c-243 -20 -456 -125 -573 -282 -58 -78 -108 -185 -136
-290 l-22 -82 0 -2885 0 -2885 300 0 300 0 5 2810 5 2810 23 47 c28 56 95 118
149 139 33 12 415 14 2683 17 1874 2 2664 0 2709 -8 83 -14 129 -39 179 -95
78 -88 72 45 72 -1707 l0 -1568 -158 0 -159 0 -112 70 c-369 229 -753 531
-938 738 -43 48 -111 132 -150 188 -39 55 -99 126 -133 157 -216 200 -543 329
-929 367 -60 6 -441 10 -907 10 -697 0 -810 -2 -841 -15 -56 -23 -127 -82
-181 -149 -80 -99 -946 -1522 -971 -1597 -32 -91 -38 -197 -17 -253 39 -103
152 -146 298 -115 106 23 211 97 281 199 17 25 173 232 345 460 173 228 330
438 349 467 41 62 128 145 211 200 59 40 64 41 171 48 168 11 270 -10 311 -63
34 -43 26 -73 -54 -189 -322 -471 -550 -928 -664 -1333 l-27 -95 -5 -820 -5
-820 -24 -49 c-30 -59 -74 -106 -127 -132 -37 -18 -74 -19 -829 -24 -853 -6
-813 -3 -929 -62 -166 -84 -258 -269 -229 -459 16 -100 78 -224 141 -280 62
-55 151 -96 234 -108 40 -6 504 -7 1165 -4 1214 5 1153 1 1213 69 96 109 140
310 140 635 0 150 5 204 29 352 99 585 221 859 319 719 11 -15 138 -247 282
-517 325 -605 741 -1375 885 -1635 59 -107 140 -253 179 -325 113 -207 224
-306 392 -350 99 -26 164 -20 247 21 154 76 244 174 267 291 l9 48 -765 1487
-764 1486 0 169 0 168 227 530 c210 492 229 533 271 572 58 55 117 83 176 83
44 0 51 -4 119 -68 163 -153 476 -364 855 -575 l173 -97 308 0 308 0 7 -612
c3 -337 7 -1076 7 -1643 l2 -1030 -27 -88 c-43 -144 -134 -306 -238 -422 -25
-27 -146 -179 -271 -336 -200 -254 -234 -291 -299 -336 -91 -63 -136 -85 -218
-111 -64 -19 -105 -20 -2690 -23 -2495 -4 -2627 -3 -2653 14 -39 25 -43 57
-16 114 17 36 96 120 306 328 l283 280 -2 245 -3 245 -331 3 -331 2 -114 -132
c-63 -73 -364 -423 -668 -778 -305 -355 -582 -674 -616 -710 -35 -36 -68 -75
-74 -87 -30 -60 3 -104 92 -123 37 -7 1100 -9 3573 -8 l3521 3 84 42 c77 39
213 131 286 193 16 14 139 162 273 330 134 168 288 351 342 408 204 215 337
423 383 597 13 53 15 446 15 3700 -1 2123 -4 3682 -10 3742 -12 134 -32 209
-85 319 -92 190 -270 334 -503 408 -188 59 -25 56 -2937 55 -1468 -1 -2715 -5
-2769 -10z"/>
<path d="M6012 8865 c-171 -39 -340 -171 -416 -325 -159 -327 -11 -710 327
-844 316 -125 684 44 797 367 114 323 -59 673 -387 783 -96 32 -229 40 -321
19z"/>
</g>
</svg>
