<svg width="21" height="21" viewBox="0 0 21 21" fill="none" xmlns="http://www.w3.org/2000/svg">
<g clip-path="url(#clip0_159_1577)">
<path d="M2.51908 18.3378V9.74411C2.51908 8.27825 3.71492 7.08241 5.18078 7.08241H6.90382C7.19528 7.08241 7.43101 7.31815 7.43101 7.60961C7.43101 7.90107 7.19528 8.13681 6.90382 8.13681H5.18078C4.29355 8.13681 3.56919 8.86116 3.56919 9.7484V18.3464C3.56919 19.2337 4.29355 19.958 5.18078 19.958H15.819C16.7062 19.958 17.4306 19.2337 17.4306 18.3464V9.74411C17.4306 8.85688 16.7062 8.13252 15.819 8.13252H14.096C13.8045 8.13252 13.5688 7.89678 13.5688 7.60532C13.5688 7.31386 13.8045 7.07812 14.096 7.07812H15.819C17.2849 7.07812 18.4807 8.27396 18.4807 9.73983V18.3378C18.4807 19.8037 17.2849 20.9995 15.819 20.9995H5.18078C3.71063 20.9995 2.51908 19.808 2.51908 18.3378Z" fill="#595959" stroke="#595959" stroke-width="0.5"/>
<path d="M14.4644 4.48117C14.2587 4.68691 13.9287 4.68691 13.7229 4.48117L11.0227 1.7809V11.6305C11.0227 11.9219 10.7869 12.1577 10.4955 12.1577C10.204 12.1577 9.96826 11.9219 9.96826 11.6305V1.78518L7.26798 4.48546C7.16511 4.58833 7.03224 4.63976 6.89509 4.63976C6.75793 4.63976 6.62506 4.58833 6.52219 4.48546C6.31646 4.27972 6.31646 3.94969 6.52219 3.74395L10.1183 0.147872C10.3154 -0.0492907 10.6626 -0.0492907 10.8598 0.147872L14.4559 3.74395C14.6702 3.9454 14.6702 4.27544 14.4644 4.48117Z" fill="#595959"/>
</g>
<defs>
<clipPath id="clip0_159_1577">
<rect width="21" height="21" fill="white" transform="matrix(-1 0 0 1 21 0)"/>
</clipPath>
</defs>
</svg>
