<svg width="13" height="13" viewBox="0 0 13 13" fill="none" xmlns="http://www.w3.org/2000/svg">
<path d="M11.9206 11.293V8.44215H9.25484V11.293H7.83286V6.20014H5.16707V11.293H3.74508V3.84277H1.07929V11.293H0V11.8445H1.07933H3.74512H5.16711H7.83289H9.25488H11.9207H13V11.293H11.9206ZM1.63087 11.293V4.39432H3.19358V11.293H1.63087ZM5.71861 11.293V6.75168H7.28132V11.293H5.71861ZM9.80639 11.293V8.99369H11.3691V11.293H9.80639Z" fill="black"/>
<path d="M8.87947 5.78218L8.96271 6.3274L11.0528 6.00827L10.7336 3.91826L10.1884 4.00147L10.3617 5.13625L3.60937 1.1543L3.32922 1.62936L10.0644 5.60124L8.87947 5.78218Z" fill="black"/>
</svg>
