<svg width="13" height="13" viewBox="0 0 13 13" fill="none" xmlns="http://www.w3.org/2000/svg">
<g clip-path="url(#clip0)">
<path d="M0.190803 11.0919H2.82909C2.6477 10.8628 2.57489 10.5685 2.62971 10.2806L3.17037 7.44206C3.2384 7.08495 3.49489 6.79172 3.83976 6.67676L5.21852 6.21718C5.24279 6.20909 5.26754 6.20624 5.29158 6.20787V5.84155C5.02851 5.54594 4.88454 5.17003 4.88454 4.77001V4.31885C4.6482 4.23902 4.4775 4.01535 4.4775 3.75239V2.73478C4.4775 2.06847 5.0196 1.52637 5.68591 1.52637H7.31409C7.58335 1.52637 7.81163 1.70529 7.88622 1.95051C8.24917 2.0268 8.5225 2.34946 8.5225 2.73478V3.75239C8.5225 4.01532 8.3518 4.23899 8.11546 4.31885V4.7103C8.11546 5.1308 7.96122 5.5192 7.70842 5.81591V6.20787C7.73246 6.20627 7.75718 6.20909 7.78148 6.21721L9.16024 6.67678C9.50511 6.79175 9.7616 7.08497 9.82963 7.44208L10.3703 10.2806C10.4251 10.5685 10.3523 10.8628 10.1709 11.092H12.8092C12.9146 11.092 13 11.1774 13 11.2828C13 11.3881 12.9146 11.4736 12.8092 11.4736H9.38315H9.34932H8.94227H4.05773H3.65069H3.61685H0.190803C0.0854282 11.4736 0 11.3881 0 11.2828C0 11.1774 0.0854282 11.0919 0.190803 11.0919ZM7.51761 6.58899C7.41224 6.58899 7.32681 6.50356 7.32681 6.39819V6.14584C7.09759 6.28956 6.83233 6.37623 6.54956 6.38473C6.53279 6.38524 6.5161 6.38547 6.49941 6.38547C6.20395 6.38547 5.92085 6.30658 5.67319 6.15836V6.39819C5.67319 6.50356 5.58776 6.58899 5.48239 6.58899C5.47972 6.58899 5.47712 6.58871 5.47448 6.58858C5.52416 7.05915 5.96507 7.42852 6.5 7.42852C7.03493 7.42852 7.47584 7.05915 7.52552 6.58858C7.52288 6.58871 7.52028 6.58899 7.51761 6.58899ZM8.1409 3.75239V2.73478C8.1409 2.50333 7.95259 2.31502 7.72114 2.31502C7.61576 2.31502 7.53033 2.22959 7.53033 2.12421C7.53033 2.00498 7.43333 1.90797 7.31409 1.90797H5.68591C5.23002 1.90797 4.8591 2.27887 4.8591 2.73478V3.75239C4.8591 3.78908 4.86836 3.82363 4.88454 3.85395V3.54887C4.88454 3.21922 5.15273 2.95102 5.48239 2.95102H7.51761C7.84727 2.95102 8.11546 3.21922 8.11546 3.54887V3.85395C8.13164 3.82363 8.1409 3.78908 8.1409 3.75239ZM7.73386 3.54887C7.73386 3.42963 7.63685 3.33263 7.51761 3.33263H5.48239C5.36315 3.33263 5.26614 3.42963 5.26614 3.54887V4.77001C5.26614 5.10658 5.3992 5.4211 5.6408 5.65556C5.88231 5.88992 6.20138 6.01338 6.53811 6.0033C7.19745 5.98351 7.73386 5.40345 7.73386 4.71027V3.54887ZM8.94227 11.0919C8.94929 11.0919 8.95499 11.0862 8.95499 11.0792V8.43341C8.95499 8.42642 8.94929 8.42069 8.94227 8.42069H4.05773C4.05071 8.42069 4.04501 8.42642 4.04501 8.43341V11.0792C4.04501 11.0862 4.05071 11.0919 4.05773 11.0919H8.94227ZM3.65069 11.0919H3.66404C3.66391 11.0877 3.66341 11.0835 3.66341 11.0792V8.43341C3.66341 8.21597 3.84029 8.03909 4.05773 8.03909H8.94227C9.15971 8.03909 9.3366 8.21597 9.3366 8.43341V11.0792C9.3366 11.0835 9.33609 11.0877 9.33596 11.0919H9.34932H9.38315C9.56953 11.0919 9.74453 11.0096 9.86334 10.866C9.98214 10.7224 10.0303 10.5351 9.9954 10.352L9.45474 7.51347C9.41256 7.29198 9.25346 7.11011 9.03955 7.0388L7.9011 6.65931C7.81608 7.30681 7.22039 7.81013 6.5 7.81013C5.77961 7.81013 5.18392 7.30681 5.09887 6.65931L3.96042 7.03877C3.74652 7.11008 3.58742 7.29198 3.54524 7.51347L3.00458 10.352C2.9697 10.5351 3.01783 10.7224 3.13664 10.866C3.25544 11.0096 3.43047 11.0919 3.61682 11.0919H3.65069Z" fill="black"/>
<path d="M6.49999 9.25977C6.82965 9.25977 7.09784 9.52796 7.09784 9.85761C7.09784 10.1873 6.82965 10.4555 6.49999 10.4555C6.17034 10.4555 5.90214 10.1873 5.90214 9.85761C5.90214 9.52796 6.17034 9.25977 6.49999 9.25977ZM6.49999 10.0739C6.61923 10.0739 6.71623 9.97685 6.71623 9.85761C6.71623 9.73837 6.61923 9.64137 6.49999 9.64137C6.38075 9.64137 6.28375 9.73837 6.28375 9.85761C6.28375 9.97685 6.38075 10.0739 6.49999 10.0739Z" fill="black"/>
</g>
<defs>
<clipPath id="clip0">
<rect width="13" height="13" fill="white" transform="matrix(-1 0 0 1 13 0)"/>
</clipPath>
</defs>
</svg>
