<svg width="22" height="16" viewBox="0 0 22 16" fill="none" xmlns="http://www.w3.org/2000/svg">
<g filter="url(#filter0_d)">
<path d="M4.95751 3.64635L7.25493 1.55779C9.53914 -0.519262 13.257 -0.519262 15.5413 1.55779L17.8387 3.64635C18.0538 3.84189 18.0538 4.15798 17.8387 4.35353L15.5413 6.44209C14.3992 7.48037 12.8989 8 11.3981 8C9.89731 8 8.39706 7.48037 7.25496 6.44209L4.95754 4.35353C4.74241 4.15798 4.74241 3.84189 4.95751 3.64635ZM11.3981 6.50061C12.9149 6.50061 14.1489 5.3788 14.1489 3.99993C14.1489 2.62106 12.9149 1.49925 11.3981 1.49925C9.88135 1.49925 8.64736 2.62106 8.64736 3.99993C8.64736 5.3788 9.88135 6.50061 11.3981 6.50061Z" fill="#B93E87"/>
<path d="M11.398 2.49902C12.308 2.49902 13.0485 3.17221 13.0485 3.99943C13.0485 4.82664 12.308 5.49983 11.398 5.49983C10.4881 5.49983 9.74757 4.82664 9.74757 3.99943C9.74757 3.17221 10.4881 2.49902 11.398 2.49902Z" fill="#B93E87"/>
</g>
<defs>
<filter id="filter0_d" x="0.796143" y="0" width="21.2038" height="16" filterUnits="userSpaceOnUse" color-interpolation-filters="sRGB">
<feFlood flood-opacity="0" result="BackgroundImageFix"/>
<feColorMatrix in="SourceAlpha" type="matrix" values="0 0 0 0 0 0 0 0 0 0 0 0 0 0 0 0 0 0 127 0" result="hardAlpha"/>
<feOffset dy="4"/>
<feGaussianBlur stdDeviation="2"/>
<feComposite in2="hardAlpha" operator="out"/>
<feColorMatrix type="matrix" values="0 0 0 0 0 0 0 0 0 0 0 0 0 0 0 0 0 0 0.25 0"/>
<feBlend mode="normal" in2="BackgroundImageFix" result="effect1_dropShadow"/>
<feBlend mode="normal" in="SourceGraphic" in2="effect1_dropShadow" result="shape"/>
</filter>
</defs>
</svg>
