<svg width="15" height="15" viewBox="0 0 15 15" fill="none" xmlns="http://www.w3.org/2000/svg">
<path d="M2.87139 0.481445H0.319079C0.142714 0.481445 0 0.624323 0 0.800525V2.71475C0 2.89096 0.142714 3.03383 0.319079 3.03383H2.87139C3.04775 3.03383 3.19046 2.89096 3.19046 2.71475V0.800525C3.19046 0.624323 3.04775 0.481445 2.87139 0.481445ZM2.55231 2.39576H0.638077V1.11952H2.55231V2.39576Z" fill="black"/>
<path d="M2.87139 6.22363H0.319079C0.142714 6.22363 0 6.36651 0 6.54271V8.45694C0 8.63314 0.142714 8.77602 0.319079 8.77602H2.87139C3.04775 8.77602 3.19046 8.63314 3.19046 8.45694V6.54271C3.19046 6.36651 3.04775 6.22363 2.87139 6.22363ZM2.55231 8.13786H0.638077V6.86171H2.55231V8.13786Z" fill="black"/>
<path d="M2.87139 11.9668H0.319079C0.142714 11.9668 0 12.1097 0 12.2859V14.2001C0 14.3763 0.142714 14.5192 0.319079 14.5192H2.87139C3.04775 14.5192 3.19046 14.3763 3.19046 14.2001V12.2859C3.19046 12.1097 3.04775 11.9668 2.87139 11.9668ZM2.55231 13.881H0.638077V12.6049H2.55231V13.881Z" fill="black"/>
<path d="M15 1.43848H4.14752V2.07655H15V1.43848Z" fill="black"/>
<path d="M15 7.18164H4.14752V7.81972H15V7.18164Z" fill="black"/>
<path d="M15 12.9238H4.14752V13.5619H15V12.9238Z" fill="black"/>
</svg>
