<svg width="11" height="11" viewBox="0 0 11 11" fill="none" xmlns="http://www.w3.org/2000/svg">
<g clip-path="url(#clip0)">
<path d="M10.9502 6.78909C10.8612 6.65847 10.6831 6.62477 10.5525 6.71383L7.43404 8.84003L6.74144 7.91309C6.6688 7.81618 6.53956 7.77138 6.41832 7.81175C6.26672 7.86221 6.1847 8.026 6.23516 8.17761L6.80199 9.88102C6.82341 9.94433 6.85835 10.0069 6.90576 10.0599C7.09331 10.2693 7.41519 10.2872 7.62473 10.0996L7.66171 10.0666L10.9047 7.16361C11.0102 7.06932 11.0321 6.90914 10.9502 6.78909Z" fill="black"/>
<path d="M5.72218 9.07643H0.571213V1.34172H8.11266V7.28344C8.11266 7.44114 8.24056 7.56904 8.39827 7.56904C8.55597 7.56904 8.68387 7.44114 8.68387 7.28344V1.05611C8.68387 0.898412 8.55597 0.770508 8.39827 0.770508H0.285607C0.127904 0.770508 0 0.898412 0 1.05611V9.36203C0 9.51974 0.127904 9.64764 0.285607 9.64764H5.72218C5.87988 9.64764 6.00779 9.51974 6.00779 9.36203C6.00779 9.20428 5.87988 9.07643 5.72218 9.07643Z" fill="black"/>
<path d="M6.64956 2.56348H2.0342C1.8765 2.56348 1.7486 2.69138 1.7486 2.84908C1.7486 3.00679 1.8765 3.13469 2.0342 3.13469H6.64956C6.80726 3.13469 6.93517 3.00679 6.93517 2.84908C6.93517 2.69138 6.80731 2.56348 6.64956 2.56348Z" fill="black"/>
<path d="M6.64956 3.79785H2.0342C1.8765 3.79785 1.7486 3.92576 1.7486 4.08346C1.7486 4.24116 1.8765 4.36906 2.0342 4.36906H6.64956C6.80726 4.36906 6.93517 4.24116 6.93517 4.08346C6.93517 3.92576 6.80731 3.79785 6.64956 3.79785Z" fill="black"/>
<path d="M6.64956 5.03223H2.0342C1.8765 5.03223 1.7486 5.16013 1.7486 5.31783C1.7486 5.47554 1.8765 5.60344 2.0342 5.60344H6.64956C6.80726 5.60344 6.93517 5.47554 6.93517 5.31783C6.93517 5.16013 6.80731 5.03223 6.64956 5.03223Z" fill="black"/>
<path d="M6.93517 6.55318C6.93517 6.39548 6.80726 6.26758 6.64956 6.26758H2.0342C1.8765 6.26758 1.7486 6.39548 1.7486 6.55318C1.7486 6.71089 1.8765 6.83879 2.0342 6.83879H6.64956C6.80731 6.83879 6.93517 6.71093 6.93517 6.55318Z" fill="black"/>
<path d="M2.0342 7.44141C1.8765 7.44141 1.7486 7.56931 1.7486 7.72701C1.7486 7.88472 1.8765 8.01262 2.0342 8.01262H4.34186C4.49956 8.01262 4.62746 7.88472 4.62746 7.72701C4.62746 7.56931 4.49956 7.44141 4.34186 7.44141H2.0342Z" fill="black"/>
</g>
<defs>
<clipPath id="clip0">
<rect width="11" height="11" fill="white"/>
</clipPath>
</defs>
</svg>
