<svg width="116" height="14" viewBox="0 0 116 14" fill="none" xmlns="http://www.w3.org/2000/svg">
<path d="M7.90234 10.5098H3.53613L2.70605 13H0.0581055L4.55713 0.914062H6.86475L11.3887 13H8.74072L7.90234 10.5098ZM4.2085 8.49268H7.22998L5.71094 3.96875L4.2085 8.49268ZM21.5156 0.914062V8.87451C21.5156 10.1971 21.1006 11.243 20.2705 12.0122C19.446 12.7814 18.3171 13.166 16.8838 13.166C15.4727 13.166 14.3521 12.7925 13.522 12.0454C12.6919 11.2983 12.2686 10.2718 12.252 8.96582V0.914062H14.7422V8.89111C14.7422 9.68245 14.9303 10.2607 15.3066 10.626C15.6885 10.9857 16.2142 11.1655 16.8838 11.1655C18.2839 11.1655 18.995 10.4295 19.0171 8.95752V0.914062H21.5156ZM23.5576 13V0.914062H27.2764C28.3389 0.914062 29.2879 1.15479 30.1235 1.63623C30.9647 2.11214 31.6204 2.79281 32.0908 3.67822C32.5612 4.55811 32.7964 5.55973 32.7964 6.68311V7.23926C32.7964 8.36263 32.564 9.36149 32.0991 10.2358C31.6398 11.1102 30.9896 11.7881 30.1484 12.2695C29.3073 12.751 28.3582 12.9945 27.3013 13H23.5576ZM26.0479 2.93115V10.9995H27.2515C28.2254 10.9995 28.9697 10.6813 29.4844 10.0449C29.999 9.40853 30.2619 8.49821 30.2729 7.31396V6.6748C30.2729 5.44629 30.0184 4.5166 29.5093 3.88574C29.0002 3.24935 28.2559 2.93115 27.2764 2.93115H26.0479ZM37.2622 13H34.772V0.914062H37.2622V13ZM48.4268 2.93115H44.7246V13H42.2344V2.93115H38.582V0.914062H48.4268V2.93115Z" fill="#CF3A78"/>
<path d="M56.0801 8.7417V13H53.5898V0.914062H58.3047C59.2122 0.914062 60.0091 1.08008 60.6953 1.41211C61.387 1.74414 61.9183 2.21729 62.2891 2.83154C62.6598 3.44027 62.8452 4.13477 62.8452 4.91504C62.8452 6.09928 62.4385 7.03451 61.625 7.7207C60.8171 8.40137 59.6965 8.7417 58.2632 8.7417H56.0801ZM56.0801 6.72461H58.3047C58.9632 6.72461 59.464 6.56966 59.8071 6.25977C60.1558 5.94987 60.3301 5.50716 60.3301 4.93164C60.3301 4.33952 60.1558 3.86084 59.8071 3.49561C59.4585 3.13037 58.9771 2.94222 58.3628 2.93115H56.0801V6.72461ZM74.4912 7.23096C74.4912 8.42074 74.2809 9.46387 73.8604 10.3604C73.4398 11.2568 72.8366 11.9486 72.0508 12.4355C71.2705 12.9225 70.374 13.166 69.3613 13.166C68.3597 13.166 67.466 12.9253 66.6802 12.4438C65.8944 11.9624 65.2856 11.2762 64.854 10.3853C64.4224 9.48877 64.2038 8.45947 64.1982 7.29736V6.69971C64.1982 5.50993 64.4113 4.46403 64.8374 3.56201C65.269 2.65446 65.875 1.95996 66.6553 1.47852C67.4411 0.991536 68.3376 0.748047 69.3447 0.748047C70.3519 0.748047 71.2456 0.991536 72.0259 1.47852C72.8117 1.95996 73.4176 2.65446 73.8438 3.56201C74.2754 4.46403 74.4912 5.50716 74.4912 6.69141V7.23096ZM71.9678 6.68311C71.9678 5.41585 71.7409 4.45296 71.2871 3.79443C70.8333 3.1359 70.1859 2.80664 69.3447 2.80664C68.5091 2.80664 67.8644 3.13314 67.4106 3.78613C66.9569 4.43359 66.7272 5.38542 66.7217 6.6416V7.23096C66.7217 8.46501 66.9486 9.42236 67.4023 10.103C67.8561 10.7837 68.5091 11.124 69.3613 11.124C70.1969 11.124 70.8389 10.7975 71.2871 10.1445C71.7354 9.486 71.9622 8.52865 71.9678 7.27246V6.68311ZM80.7749 8.57568H78.791V13H76.3008V0.914062H80.7915C82.2192 0.914062 83.3205 1.23226 84.0952 1.86865C84.87 2.50505 85.2573 3.4043 85.2573 4.56641C85.2573 5.39095 85.0775 6.07992 84.7178 6.6333C84.3636 7.18115 83.8241 7.61833 83.0991 7.94482L85.7139 12.8838V13H83.041L80.7749 8.57568ZM78.791 6.55859H80.7998C81.4251 6.55859 81.9093 6.40088 82.2524 6.08545C82.5955 5.76449 82.7671 5.32454 82.7671 4.76562C82.7671 4.19564 82.6038 3.7474 82.2773 3.4209C81.9564 3.0944 81.4611 2.93115 80.7915 2.93115H78.791V6.55859ZM95.8408 2.93115H92.1387V13H89.6484V2.93115H85.9961V0.914062H95.8408V2.93115ZM103.096 10.5098H98.7295L97.8994 13H95.2515L99.7505 0.914062H102.058L106.582 13H103.934L103.096 10.5098ZM99.4019 8.49268H102.423L100.904 3.96875L99.4019 8.49268ZM110.201 10.9995H115.489V13H107.711V0.914062H110.201V10.9995Z" fill="#5452E1"/>
</svg>
